<?xml version="1.0" encoding="utf-8"?>
<!-- Generator: Adobe Illustrator 23.0.6, SVG Export Plug-In . SVG Version: 6.00 Build 0)  -->
<svg version="1.1" id="Layer_1" xmlns="http://www.w3.org/2000/svg" xmlns:xlink="http://www.w3.org/1999/xlink" x="0px" y="0px"
	 viewBox="0 0 144 216" style="enable-background:new 0 0 144 216;" xml:space="preserve">
<style type="text/css">
	.st0{fill:#FD55D3;}
	.st1{fill:#5D22C2;}
	.st2{clip-path:url(#SVGID_2_);}
	.st3{clip-path:url(#SVGID_4_);fill:#231F20;}
	.st4{clip-path:url(#SVGID_4_);fill:none;stroke:#5D22C2;stroke-width:0.7793;stroke-miterlimit:10;}
	.st5{clip-path:url(#SVGID_6_);fill:#231F20;}
	.st6{clip-path:url(#SVGID_6_);fill:none;stroke:#5D22C2;stroke-width:5.401508e-02;stroke-miterlimit:10;}
	.st7{clip-path:url(#SVGID_6_);fill:none;stroke:#5D22C2;stroke-width:0.7022;stroke-miterlimit:10;}
	.st8{clip-path:url(#SVGID_8_);}
	.st9{clip-path:url(#SVGID_10_);fill:#231F20;}
	.st10{clip-path:url(#SVGID_10_);fill:none;stroke:#5D22C2;stroke-width:0.6685;stroke-miterlimit:10;}
	.st11{clip-path:url(#SVGID_10_);fill:none;stroke:#5D22C2;stroke-width:0.7242;stroke-miterlimit:10;}
	.st12{clip-path:url(#SVGID_10_);fill:none;stroke:#231F20;stroke-width:0.7242;stroke-miterlimit:10;}
</style>
<rect x="-0.1" y="0.5" class="st0" width="650.7" height="215.6"/>
<ellipse class="st1" cx="16" cy="81" rx="13.1" ry="14.9"/>
<ellipse class="st1" cx="16.4" cy="137" rx="13" ry="14.9"/>
<ellipse class="st1" cx="16.5" cy="190.7" rx="13.1" ry="14.9"/>
<g>
	<path d="M34.7,190.4c0-0.2,0-0.4,0-0.6s-0.1-0.3-0.1-0.4s-0.1-0.2-0.2-0.2s-0.2-0.1-0.3-0.1c-0.2,0-0.4,0.1-0.7,0.3
		s-0.5,0.5-0.7,0.9v3.8h-1.5v-5.9h1.3l0,0.9c0.1-0.1,0.2-0.3,0.3-0.4s0.3-0.2,0.4-0.3s0.3-0.2,0.5-0.2s0.4-0.1,0.6-0.1
		c0.3,0,0.6,0.1,0.8,0.2s0.4,0.3,0.6,0.5s0.3,0.5,0.3,0.8s0.1,0.7,0.1,1.1L34.7,190.4L34.7,190.4z"/>
	<path d="M37.8,188.1v3.9c0,0.3,0.1,0.6,0.2,0.7s0.3,0.3,0.5,0.3c0.2,0,0.5-0.1,0.7-0.3s0.5-0.5,0.7-0.8v-3.8h1.4v5.9h-1.2l0-0.9
		c-0.1,0.1-0.3,0.3-0.4,0.4s-0.3,0.2-0.4,0.3s-0.3,0.2-0.5,0.2s-0.4,0.1-0.6,0.1c-0.3,0-0.6-0.1-0.8-0.1s-0.4-0.2-0.6-0.4
		s-0.3-0.4-0.3-0.7s-0.1-0.5-0.1-0.9v-4L37.8,188.1L37.8,188.1z"/>
	<path d="M46.8,194c-0.3,0.1-0.5,0.1-0.8,0.1s-0.5,0.1-0.7,0.1c-0.4,0-0.7,0-1-0.1s-0.5-0.2-0.7-0.4s-0.3-0.4-0.4-0.6
		s-0.1-0.6-0.1-0.9v-2.9h-1.6v-1.1h1.6v-1.5l1.5-0.4v1.9h2.3v1.1h-2.3v2.8c0,0.3,0.1,0.6,0.2,0.8s0.4,0.3,0.8,0.3
		c0.2,0,0.5,0,0.7-0.1s0.4-0.1,0.6-0.1L46.8,194L46.8,194z"/>
	<path d="M50.8,194v-3.9c0-0.6-0.2-1-0.7-1c-0.2,0-0.5,0.1-0.7,0.3s-0.5,0.5-0.7,0.8v3.8h-1.4v-8.3h1.4v2l-0.1,1.1
		c0.1-0.1,0.2-0.3,0.4-0.4s0.3-0.2,0.4-0.3s0.3-0.1,0.5-0.2s0.3-0.1,0.6-0.1c0.3,0,0.6,0.1,0.8,0.1s0.4,0.2,0.6,0.4s0.3,0.4,0.3,0.7
		s0.1,0.5,0.1,0.9v4L50.8,194L50.8,194z"/>
	<path d="M57,194l0-0.9c-0.1,0.1-0.3,0.3-0.4,0.4s-0.3,0.2-0.4,0.3s-0.3,0.2-0.5,0.2s-0.4,0.1-0.6,0.1c-0.3,0-0.7-0.1-0.9-0.2
		s-0.5-0.3-0.7-0.6s-0.3-0.6-0.4-0.9s-0.2-0.8-0.2-1.2c0-0.6,0.1-1,0.2-1.4s0.4-0.7,0.6-1s0.6-0.5,1-0.6s0.8-0.2,1.2-0.2
		c0.2,0,0.3,0,0.5,0s0.3,0,0.4,0.1v-2.3h1.4v8.3H57z M54.4,191.1c0,0.3,0,0.6,0.1,0.8s0.1,0.4,0.2,0.6s0.2,0.3,0.3,0.3
		s0.3,0.1,0.4,0.1c0.2,0,0.5-0.1,0.7-0.3s0.5-0.5,0.7-0.8v-2.6c-0.1,0-0.3-0.1-0.4-0.1s-0.3,0-0.5,0c-0.2,0-0.4,0.1-0.6,0.1
		s-0.3,0.2-0.5,0.4s-0.2,0.4-0.3,0.6S54.4,190.8,54.4,191.1z"/>
	<path d="M64.1,190.6c0,0.1,0,0.2,0,0.4s0,0.3,0,0.4h-3.9c0,0.3,0,0.5,0.1,0.7s0.2,0.4,0.3,0.5s0.3,0.2,0.5,0.3s0.4,0.1,0.7,0.1
		c0.3,0,0.6,0,0.9-0.1s0.7-0.1,1-0.2v1.1c-0.2,0-0.3,0.1-0.5,0.1s-0.4,0.1-0.5,0.1s-0.4,0.1-0.6,0.1s-0.4,0-0.6,0
		c-0.5,0-0.9-0.1-1.2-0.2s-0.7-0.3-0.9-0.6s-0.4-0.6-0.6-0.9s-0.2-0.8-0.2-1.3c0-0.5,0.1-0.9,0.2-1.3s0.3-0.7,0.6-1s0.5-0.5,0.9-0.7
		s0.7-0.2,1.2-0.2c0.4,0,0.8,0.1,1.1,0.2s0.6,0.3,0.8,0.6s0.4,0.5,0.5,0.8S64.1,190.2,64.1,190.6z M62.6,190.4c0-0.2,0-0.4-0.1-0.6
		s-0.2-0.3-0.3-0.4s-0.2-0.2-0.4-0.3s-0.3-0.1-0.5-0.1c-0.4,0-0.7,0.1-0.9,0.4s-0.4,0.6-0.4,1L62.6,190.4L62.6,190.4z"/>
	<path d="M69.3,192.3c0,0.3-0.1,0.6-0.2,0.9s-0.3,0.4-0.6,0.6s-0.5,0.3-0.8,0.3s-0.6,0.1-1,0.1c-0.4,0-0.8,0-1.2-0.1s-0.7-0.1-1-0.2
		v-1.3c0.4,0.1,0.7,0.3,1.1,0.3s0.7,0.1,1,0.1c0.4,0,0.7-0.1,0.8-0.2s0.3-0.3,0.3-0.5c0-0.1,0-0.2-0.1-0.3s-0.1-0.1-0.2-0.2
		s-0.3-0.1-0.4-0.2s-0.4-0.1-0.8-0.2c-0.3-0.1-0.6-0.2-0.8-0.3s-0.4-0.2-0.6-0.4s-0.3-0.3-0.3-0.5s-0.1-0.4-0.1-0.6
		c0-0.2,0.1-0.5,0.2-0.7s0.3-0.4,0.5-0.6s0.5-0.3,0.8-0.4s0.7-0.1,1.1-0.1c0.4,0,0.7,0,1,0.1s0.5,0.1,0.8,0.1v1.2
		c-0.3-0.1-0.7-0.2-1-0.2S67.3,189,67,189s-0.5,0.1-0.7,0.2s-0.3,0.3-0.3,0.4c0,0.1,0,0.2,0.1,0.2s0.1,0.1,0.2,0.2s0.3,0.1,0.4,0.2
		s0.4,0.1,0.7,0.2c0.3,0.1,0.6,0.2,0.9,0.3s0.4,0.2,0.6,0.4s0.3,0.3,0.3,0.5S69.3,192,69.3,192.3z"/>
	<path d="M71.6,189.2h-1.7v-1.1h3.2v4.8h1.7v1.1h-5.1v-1.1h1.9L71.6,189.2L71.6,189.2z M73.2,186.4c0,0.1,0,0.3-0.1,0.4
		s-0.1,0.2-0.2,0.3s-0.2,0.1-0.3,0.2s-0.2,0.1-0.4,0.1s-0.3,0-0.4-0.1s-0.2-0.1-0.3-0.2s-0.2-0.2-0.2-0.3s-0.1-0.2-0.1-0.4
		s0-0.3,0.1-0.4s0.1-0.2,0.2-0.3s0.2-0.1,0.3-0.2s0.2-0.1,0.4-0.1s0.3,0,0.4,0.1s0.2,0.1,0.3,0.2s0.2,0.2,0.2,0.3
		S73.2,186.3,73.2,186.4z"/>
	<path d="M79.7,189.1c0.1,0.1,0.2,0.3,0.2,0.4s0.1,0.3,0.1,0.5c0,0.3-0.1,0.6-0.2,0.9s-0.3,0.5-0.5,0.6s-0.5,0.3-0.8,0.4
		s-0.6,0.1-1,0.1c-0.2,0-0.4,0-0.6-0.1s-0.3-0.1-0.4-0.1c-0.1,0.1-0.1,0.1-0.2,0.2s-0.1,0.2-0.1,0.3c0,0.1,0,0.1,0.1,0.2
		s0.1,0.1,0.1,0.2s0.1,0.1,0.2,0.1s0.2,0.1,0.3,0.1l1.4,0.1c0.3,0,0.6,0.1,0.9,0.1s0.5,0.2,0.7,0.3s0.3,0.3,0.4,0.5s0.2,0.4,0.2,0.6
		c0,0.3-0.1,0.5-0.2,0.8s-0.3,0.5-0.6,0.6s-0.6,0.3-0.9,0.4s-0.8,0.2-1.3,0.2c-0.5,0-0.9,0-1.2-0.1s-0.6-0.2-0.8-0.3
		s-0.4-0.3-0.5-0.5s-0.2-0.4-0.2-0.6c0-0.1,0-0.3,0.1-0.4s0.1-0.2,0.2-0.3s0.2-0.2,0.3-0.3s0.2-0.2,0.4-0.3
		c-0.2-0.1-0.3-0.3-0.4-0.4s-0.2-0.4-0.2-0.6c0-0.1,0-0.3,0.1-0.4s0.1-0.2,0.1-0.3s0.1-0.2,0.2-0.3s0.2-0.2,0.2-0.3
		c-0.1-0.1-0.3-0.3-0.4-0.5s-0.1-0.5-0.1-0.8c0-0.3,0.1-0.6,0.2-0.9s0.3-0.5,0.5-0.7s0.5-0.3,0.8-0.4s0.6-0.1,0.9-0.1
		c0.2,0,0.3,0,0.5,0s0.3,0.1,0.4,0.1h2.1v1L79.7,189.1L79.7,189.1z M76.4,194.8c0,0.2,0.1,0.4,0.3,0.5s0.6,0.2,1,0.2
		c0.3,0,0.5,0,0.7-0.1s0.3-0.1,0.4-0.2s0.2-0.2,0.3-0.3s0.1-0.2,0.1-0.3c0-0.1,0-0.2-0.1-0.3s-0.1-0.1-0.2-0.2s-0.2-0.1-0.3-0.1
		s-0.3,0-0.4-0.1l-1.3,0c-0.1,0.1-0.2,0.1-0.3,0.2s-0.1,0.1-0.2,0.2s-0.1,0.1-0.1,0.2S76.4,194.7,76.4,194.8z M76.6,190
		c0,0.3,0.1,0.6,0.3,0.8s0.4,0.3,0.8,0.3c0.2,0,0.3,0,0.5-0.1s0.2-0.1,0.3-0.2s0.2-0.2,0.2-0.3s0.1-0.3,0.1-0.4
		c0-0.3-0.1-0.6-0.3-0.8S78,189,77.7,189c-0.2,0-0.3,0-0.5,0.1s-0.2,0.1-0.3,0.2s-0.2,0.2-0.2,0.4S76.6,189.9,76.6,190z"/>
	<path d="M84.5,194v-3.9c0-0.6-0.2-1-0.7-1c-0.2,0-0.5,0.1-0.7,0.3s-0.4,0.5-0.7,0.8v3.8H81v-5.9h1.2l0,0.9c0.1-0.1,0.3-0.3,0.4-0.4
		s0.3-0.2,0.4-0.3s0.3-0.2,0.5-0.2s0.4-0.1,0.6-0.1c0.3,0,0.6,0.1,0.8,0.1s0.4,0.2,0.6,0.4s0.3,0.4,0.3,0.7s0.1,0.5,0.1,0.9v4
		L84.5,194L84.5,194z"/>
	<path d="M91,191.6c0,0.1,0,0.2,0,0.4s0,0.2,0,0.3c0,0.2,0,0.3,0,0.3s0.1,0.1,0.1,0.1c0.2,0,0.3-0.2,0.4-0.7s0.2-1.1,0.2-2
		c0-0.5,0-1-0.1-1.4s-0.2-0.8-0.3-1.1s-0.3-0.5-0.5-0.6s-0.5-0.2-0.8-0.2c-0.2,0-0.4,0.1-0.7,0.2s-0.4,0.3-0.6,0.5s-0.4,0.5-0.5,0.8
		s-0.3,0.7-0.4,1.1s-0.2,0.8-0.3,1.3s-0.1,0.9-0.1,1.4c0,0.6,0,1.1,0.1,1.5s0.2,0.8,0.4,1.1s0.4,0.5,0.6,0.7s0.5,0.2,0.8,0.2
		c0.2,0,0.3,0,0.4,0s0.3-0.1,0.4-0.1s0.3-0.1,0.5-0.2s0.3-0.2,0.5-0.3v1.1c-0.3,0.2-0.6,0.3-1,0.4s-0.7,0.1-1.1,0.1
		c-0.5,0-1-0.1-1.3-0.3s-0.7-0.5-0.9-0.9s-0.4-0.9-0.6-1.4s-0.2-1.2-0.2-2c0-0.6,0-1.2,0.1-1.7s0.2-1.1,0.3-1.5s0.3-0.9,0.6-1.3
		s0.5-0.7,0.8-1s0.6-0.5,0.9-0.6s0.7-0.2,1-0.2c0.5,0,0.9,0.1,1.2,0.3s0.6,0.5,0.9,0.8s0.4,0.8,0.5,1.3s0.2,1.1,0.2,1.8
		c0,0.7,0,1.3-0.1,1.8s-0.2,0.9-0.3,1.2s-0.3,0.6-0.6,0.7s-0.5,0.2-0.8,0.2c-0.5,0-0.8-0.2-0.9-0.7c-0.1,0.2-0.3,0.4-0.4,0.5
		s-0.4,0.2-0.6,0.2c-0.2,0-0.3,0-0.5-0.1s-0.3-0.2-0.4-0.3s-0.2-0.4-0.2-0.6s-0.1-0.5-0.1-0.9c0-0.3,0-0.5,0-0.8s0.1-0.5,0.1-0.8
		s0.1-0.5,0.2-0.7s0.2-0.4,0.3-0.6s0.3-0.3,0.5-0.4s0.4-0.1,0.7-0.1c0.1,0,0.3,0,0.4,0s0.2,0.1,0.3,0.1l0.9-0.2L91,191.6z M90,189.6
		C90,189.6,89.9,189.6,90,189.6c-0.1-0.1-0.2-0.1-0.2-0.1c-0.1,0-0.2,0.1-0.3,0.2s-0.2,0.3-0.2,0.5s-0.1,0.4-0.1,0.7s0,0.5,0,0.7
		c0,0.2,0,0.4,0,0.5s0,0.2,0,0.3s0,0.1,0.1,0.1s0.1,0,0.1,0c0.1,0,0.1-0.1,0.2-0.1s0.2-0.2,0.3-0.4L90,189.6z"/>
	<path d="M97.6,189.1c0.1,0.1,0.2,0.3,0.2,0.4s0.1,0.3,0.1,0.5c0,0.3-0.1,0.6-0.2,0.9s-0.3,0.5-0.5,0.6s-0.5,0.3-0.8,0.4
		s-0.6,0.1-1,0.1c-0.2,0-0.4,0-0.6-0.1s-0.3-0.1-0.4-0.1c-0.1,0.1-0.1,0.1-0.2,0.2s-0.1,0.2-0.1,0.3c0,0.1,0,0.1,0.1,0.2
		s0.1,0.1,0.1,0.2s0.1,0.1,0.2,0.1s0.2,0.1,0.3,0.1l1.4,0.1c0.3,0,0.6,0.1,0.9,0.1s0.5,0.2,0.7,0.3s0.3,0.3,0.4,0.5s0.2,0.4,0.2,0.6
		c0,0.3-0.1,0.5-0.2,0.8s-0.3,0.5-0.6,0.6s-0.6,0.3-0.9,0.4s-0.8,0.2-1.3,0.2c-0.5,0-0.9,0-1.2-0.1s-0.6-0.2-0.8-0.3
		s-0.4-0.3-0.5-0.5s-0.2-0.4-0.2-0.6c0-0.1,0-0.3,0.1-0.4s0.1-0.2,0.2-0.3s0.2-0.2,0.3-0.3s0.2-0.2,0.4-0.3
		c-0.2-0.1-0.3-0.3-0.4-0.4s-0.2-0.4-0.2-0.6c0-0.1,0-0.3,0.1-0.4s0.1-0.2,0.1-0.3s0.1-0.2,0.2-0.3s0.2-0.2,0.2-0.3
		c-0.1-0.1-0.3-0.3-0.4-0.5s-0.1-0.5-0.1-0.8c0-0.3,0.1-0.6,0.2-0.9s0.3-0.5,0.5-0.7s0.5-0.3,0.8-0.4s0.6-0.1,0.9-0.1
		c0.2,0,0.3,0,0.5,0s0.3,0.1,0.4,0.1h2.1v1L97.6,189.1L97.6,189.1z M94.2,194.8c0,0.2,0.1,0.4,0.3,0.5s0.6,0.2,1,0.2
		c0.3,0,0.5,0,0.7-0.1s0.3-0.1,0.4-0.2s0.2-0.2,0.3-0.3s0.1-0.2,0.1-0.3c0-0.1,0-0.2-0.1-0.3s-0.1-0.1-0.2-0.2s-0.2-0.1-0.3-0.1
		s-0.3,0-0.4-0.1l-1.3,0c-0.1,0.1-0.2,0.1-0.3,0.2s-0.1,0.1-0.2,0.2s-0.1,0.1-0.1,0.2S94.2,194.7,94.2,194.8z M94.5,190
		c0,0.3,0.1,0.6,0.3,0.8s0.4,0.3,0.8,0.3c0.2,0,0.3,0,0.5-0.1s0.2-0.1,0.3-0.2s0.2-0.2,0.2-0.3s0.1-0.3,0.1-0.4
		c0-0.3-0.1-0.6-0.3-0.8s-0.4-0.3-0.8-0.3c-0.2,0-0.3,0-0.5,0.1s-0.2,0.1-0.3,0.2s-0.2,0.2-0.2,0.4S94.5,189.9,94.5,190z"/>
	<path d="M103.4,194V190c0-0.1,0-0.3,0-0.4s0-0.2-0.1-0.3s-0.1-0.1-0.1-0.2s-0.1-0.1-0.2-0.1c-0.1,0-0.2,0.1-0.4,0.3
		s-0.3,0.4-0.4,0.8v3.9h-1.2V190c0-0.1,0-0.3,0-0.4s0-0.2-0.1-0.3s-0.1-0.1-0.1-0.2s-0.1-0.1-0.2-0.1c-0.1,0-0.2,0.1-0.3,0.3
		s-0.3,0.4-0.4,0.8v3.9h-1.2v-5.9h1.1l0,0.9c0.1-0.2,0.2-0.3,0.3-0.4s0.2-0.2,0.3-0.3s0.2-0.1,0.3-0.2s0.2-0.1,0.4-0.1
		c0.3,0,0.6,0.1,0.8,0.3s0.3,0.4,0.3,0.7c0.1-0.2,0.2-0.3,0.3-0.4s0.2-0.2,0.3-0.3s0.2-0.1,0.3-0.2s0.2-0.1,0.4-0.1
		c0.4,0,0.8,0.1,1,0.4s0.3,0.8,0.3,1.3v4.3H103.4z"/>
	<path d="M108.8,194l0-0.8c-0.1,0.1-0.3,0.3-0.4,0.4s-0.3,0.2-0.4,0.3s-0.3,0.1-0.5,0.2s-0.4,0.1-0.6,0.1c-0.3,0-0.6,0-0.8-0.1
		s-0.4-0.2-0.6-0.4s-0.3-0.4-0.3-0.6s-0.1-0.5-0.1-0.8c0-0.3,0.1-0.5,0.2-0.8s0.3-0.4,0.5-0.6s0.6-0.3,0.9-0.4s0.8-0.1,1.3-0.1h0.8
		V190c0-0.1,0-0.3-0.1-0.4s-0.1-0.2-0.2-0.3s-0.2-0.1-0.4-0.2s-0.3-0.1-0.6-0.1c-0.3,0-0.7,0-1,0.1s-0.7,0.2-1,0.3v-1.1
		c0.3-0.1,0.6-0.2,1-0.3s0.8-0.1,1.2-0.1c0.4,0,0.8,0,1.1,0.1s0.6,0.2,0.8,0.4s0.4,0.4,0.4,0.6s0.2,0.6,0.2,0.9v4.1L108.8,194
		L108.8,194z M108.6,191.4h-0.9c-0.2,0-0.4,0-0.6,0.1s-0.3,0.1-0.4,0.2s-0.2,0.2-0.2,0.3s-0.1,0.2-0.1,0.3c0,0.2,0.1,0.4,0.2,0.6
		s0.4,0.2,0.6,0.2c0.2,0,0.4-0.1,0.6-0.2s0.4-0.4,0.7-0.6C108.5,192.2,108.5,191.4,108.6,191.4z"/>
	<path d="M112.3,189.2h-1.7v-1.1h3.2v4.8h1.7v1.1h-5.1v-1.1h1.9L112.3,189.2L112.3,189.2z M113.9,186.4c0,0.1,0,0.3-0.1,0.4
		s-0.1,0.2-0.2,0.3s-0.2,0.1-0.3,0.2s-0.2,0.1-0.4,0.1s-0.3,0-0.4-0.1s-0.2-0.1-0.3-0.2s-0.2-0.2-0.2-0.3s-0.1-0.2-0.1-0.4
		s0-0.3,0.1-0.4s0.1-0.2,0.2-0.3s0.2-0.1,0.3-0.2s0.2-0.1,0.4-0.1s0.3,0,0.4,0.1s0.2,0.1,0.3,0.2s0.2,0.2,0.2,0.3
		S113.9,186.3,113.9,186.4z"/>
	<path d="M117.7,186.9H116v-1.1h3.2v7.2h1.7v1.1h-5.1v-1.1h1.9L117.7,186.9L117.7,186.9z"/>
	<path d="M122.9,191.9c0.2,0,0.3,0,0.5,0.1s0.3,0.1,0.4,0.3s0.2,0.2,0.2,0.4s0.1,0.3,0.1,0.4s0,0.3-0.1,0.4s-0.1,0.3-0.2,0.4
		s-0.2,0.2-0.4,0.3s-0.3,0.1-0.5,0.1c-0.2,0-0.3,0-0.4-0.1s-0.3-0.1-0.4-0.3s-0.2-0.2-0.2-0.4s-0.1-0.3-0.1-0.4c0-0.2,0-0.3,0.1-0.4
		s0.1-0.3,0.2-0.4s0.2-0.2,0.4-0.3S122.7,191.9,122.9,191.9z"/>
	<path d="M129.6,193.8c-0.3,0.1-0.6,0.2-0.9,0.3s-0.6,0.1-0.9,0.1c-0.5,0-0.9-0.1-1.3-0.2s-0.7-0.3-1-0.6s-0.5-0.6-0.6-0.9
		s-0.2-0.8-0.2-1.3c0-0.5,0.1-0.9,0.2-1.3s0.4-0.7,0.6-1s0.6-0.5,1-0.6s0.8-0.2,1.3-0.2c0.4,0,0.7,0,1,0.1s0.5,0.1,0.7,0.2v1.4
		c-0.2-0.1-0.5-0.2-0.8-0.3s-0.6-0.1-0.8-0.1c-0.3,0-0.5,0-0.7,0.1s-0.4,0.2-0.5,0.4s-0.3,0.4-0.3,0.6s-0.1,0.5-0.1,0.8
		c0,0.3,0,0.5,0.1,0.8s0.2,0.4,0.3,0.6s0.3,0.3,0.5,0.4s0.4,0.1,0.7,0.1c0.1,0,0.3,0,0.4,0s0.3,0,0.4-0.1s0.3-0.1,0.4-0.1
		s0.3-0.1,0.4-0.1L129.6,193.8L129.6,193.8z"/>
	<path d="M135.4,191c0,0.5-0.1,0.9-0.2,1.3s-0.3,0.7-0.6,1s-0.6,0.5-0.9,0.6s-0.8,0.2-1.2,0.2c-0.4,0-0.8-0.1-1.2-0.2
		s-0.6-0.3-0.9-0.6s-0.4-0.6-0.6-1s-0.2-0.8-0.2-1.3c0-0.5,0.1-0.9,0.2-1.3s0.3-0.7,0.6-1s0.6-0.5,0.9-0.6s0.8-0.2,1.2-0.2
		c0.4,0,0.8,0.1,1.2,0.2s0.6,0.3,0.9,0.6s0.4,0.6,0.6,1S135.4,190.5,135.4,191z M133.9,191c0-0.6-0.1-1.1-0.4-1.4s-0.6-0.5-1-0.5
		c-0.3,0-0.5,0.1-0.6,0.1s-0.3,0.2-0.4,0.4s-0.2,0.4-0.3,0.6s-0.1,0.5-0.1,0.7c0,0.6,0.1,1.1,0.4,1.4s0.6,0.5,1,0.5
		c0.2,0,0.4-0.1,0.6-0.1s0.3-0.2,0.4-0.4s0.2-0.4,0.3-0.6S133.9,191.3,133.9,191z"/>
	<path d="M140.5,194V190c0-0.1,0-0.3,0-0.4s0-0.2-0.1-0.3s-0.1-0.1-0.1-0.2s-0.1-0.1-0.2-0.1c-0.1,0-0.2,0.1-0.4,0.3
		s-0.3,0.4-0.4,0.8v3.9h-1.2V190c0-0.1,0-0.3,0-0.4s0-0.2-0.1-0.3s-0.1-0.1-0.1-0.2s-0.1-0.1-0.2-0.1c-0.1,0-0.2,0.1-0.3,0.3
		s-0.3,0.4-0.4,0.8v3.9h-1.2v-5.9h1.1l0,0.9c0.1-0.2,0.2-0.3,0.3-0.4s0.2-0.2,0.3-0.3s0.2-0.1,0.3-0.2s0.2-0.1,0.4-0.1
		c0.3,0,0.6,0.1,0.8,0.3s0.3,0.4,0.3,0.7c0.1-0.2,0.2-0.3,0.3-0.4s0.2-0.2,0.3-0.3s0.2-0.1,0.3-0.2s0.2-0.1,0.4-0.1
		c0.4,0,0.8,0.1,1,0.4s0.3,0.8,0.3,1.3v4.3H140.5z"/>
</g>
<g>
	<path d="M37.1,139.3h-1.7l-0.7-2l-0.2-0.7l-0.2,0.7l-0.7,2h-1.7l-0.9-6.4h1.5l0.5,3.6l0.1,1l0.3-0.9l0.7-2h1.2l0.7,1.9l0.3,0.9
		l0.1-1l0.4-3.6H38L37.1,139.3z"/>
	<path d="M43.3,139.3h-1.7l-0.7-2l-0.2-0.7l-0.2,0.7l-0.7,2h-1.7l-0.9-6.4h1.5l0.5,3.6l0.1,1l0.3-0.9l0.7-2h1.2l0.7,1.9l0.3,0.9
		l0.1-1l0.4-3.6h1.4L43.3,139.3z"/>
	<path d="M49.6,139.3h-1.7l-0.7-2l-0.2-0.7l-0.2,0.7l-0.7,2h-1.7l-0.9-6.4H45l0.5,3.6l0.1,1l0.3-0.9l0.7-2h1.2l0.7,1.9l0.3,0.9
		l0.1-1l0.4-3.6h1.4L49.6,139.3z"/>
	<path d="M51.8,136.9c0.2,0,0.3,0,0.5,0.1c0.2,0.1,0.3,0.2,0.4,0.3c0.1,0.1,0.2,0.3,0.3,0.4c0.1,0.1,0.1,0.3,0.1,0.5s0,0.3-0.1,0.5
		s-0.2,0.3-0.3,0.4s-0.2,0.2-0.4,0.3s-0.3,0.1-0.5,0.1c-0.2,0-0.3,0-0.5-0.1s-0.3-0.1-0.4-0.3c-0.1-0.1-0.2-0.2-0.3-0.4
		s-0.1-0.3-0.1-0.5s0-0.3,0.1-0.5s0.2-0.3,0.3-0.4c0.1-0.1,0.2-0.2,0.4-0.3C51.5,137,51.6,136.9,51.8,136.9z"/>
	<path d="M58,135.3c0-0.2,0-0.4,0-0.6s-0.1-0.3-0.2-0.4s-0.2-0.2-0.3-0.2s-0.2-0.1-0.3-0.1c-0.2,0-0.5,0.1-0.7,0.3
		c-0.2,0.2-0.5,0.5-0.8,0.9v4.1h-1.6v-6.4h1.4l0.1,0.9c0.1-0.2,0.2-0.3,0.4-0.4s0.3-0.2,0.4-0.3c0.2-0.1,0.3-0.2,0.5-0.2
		s0.4-0.1,0.7-0.1c0.3,0,0.6,0.1,0.9,0.2s0.5,0.3,0.6,0.5c0.2,0.2,0.3,0.5,0.4,0.8s0.1,0.7,0.1,1.1L58,135.3L58,135.3z"/>
	<path d="M61,132.8v4.2c0,0.4,0.1,0.6,0.2,0.8s0.3,0.3,0.6,0.3c0.3,0,0.5-0.1,0.8-0.3s0.5-0.5,0.8-0.9v-4.1h1.5v6.4h-1.3l0-0.9
		c-0.1,0.2-0.3,0.3-0.4,0.4c-0.1,0.1-0.3,0.3-0.5,0.4c-0.2,0.1-0.3,0.2-0.5,0.2s-0.4,0.1-0.6,0.1c-0.3,0-0.6-0.1-0.9-0.2
		s-0.5-0.3-0.6-0.5c-0.2-0.2-0.3-0.4-0.4-0.7c-0.1-0.3-0.1-0.6-0.1-0.9v-4.3L61,132.8L61,132.8z"/>
	<path d="M70.5,139.2c-0.3,0.1-0.6,0.1-0.8,0.1s-0.6,0.1-0.8,0.1c-0.4,0-0.8,0-1.1-0.1s-0.6-0.2-0.8-0.4c-0.2-0.2-0.3-0.4-0.4-0.7
		c-0.1-0.3-0.1-0.6-0.1-1V134h-1.7v-1.2h1.7v-1.6l1.6-0.4v2.1h2.5v1.2H68v3c0,0.4,0.1,0.6,0.3,0.8s0.4,0.3,0.8,0.3
		c0.3,0,0.5,0,0.7-0.1s0.5-0.1,0.7-0.1L70.5,139.2L70.5,139.2z"/>
	<path d="M74.5,139.3v-4.2c0-0.7-0.3-1.1-0.8-1.1c-0.3,0-0.5,0.1-0.8,0.3s-0.5,0.5-0.8,0.9v4.1h-1.6v-9h1.6v2.2l-0.1,1.2
		c0.1-0.2,0.3-0.3,0.4-0.4s0.3-0.2,0.4-0.3s0.3-0.1,0.5-0.2c0.2,0,0.4-0.1,0.6-0.1c0.3,0,0.6,0.1,0.9,0.2c0.3,0.1,0.4,0.3,0.6,0.5
		c0.2,0.2,0.3,0.4,0.4,0.7c0.1,0.3,0.1,0.6,0.1,0.9v4.3L74.5,139.3L74.5,139.3z"/>
	<path d="M80.5,139.3l0-0.9c-0.1,0.2-0.3,0.3-0.4,0.4c-0.1,0.1-0.3,0.3-0.5,0.4c-0.2,0.1-0.3,0.2-0.5,0.2s-0.4,0.1-0.6,0.1
		c-0.4,0-0.7-0.1-1-0.2c-0.3-0.1-0.5-0.4-0.8-0.6c-0.2-0.3-0.3-0.6-0.5-1c-0.1-0.4-0.2-0.9-0.2-1.4c0-0.6,0.1-1.1,0.3-1.5
		s0.4-0.8,0.7-1.1c0.3-0.3,0.7-0.5,1.1-0.6c0.4-0.1,0.8-0.2,1.3-0.2c0.2,0,0.3,0,0.5,0c0.2,0,0.3,0.1,0.4,0.1v-2.5h1.6v9H80.5z
		 M77.7,136.1c0,0.4,0,0.7,0.1,0.9s0.1,0.5,0.2,0.6c0.1,0.2,0.2,0.3,0.3,0.4s0.3,0.1,0.5,0.1c0.3,0,0.5-0.1,0.8-0.3s0.5-0.5,0.8-0.9
		v-2.8c-0.1-0.1-0.3-0.1-0.4-0.1s-0.4,0-0.5,0c-0.3,0-0.5,0.1-0.7,0.1s-0.4,0.3-0.5,0.4c-0.1,0.2-0.3,0.4-0.3,0.7
		S77.7,135.8,77.7,136.1z"/>
	<path d="M87.8,135.6c0,0.1,0,0.2,0,0.4s0,0.3,0,0.5h-4.2c0,0.3,0,0.5,0.1,0.8s0.2,0.4,0.4,0.5c0.2,0.1,0.3,0.3,0.6,0.3
		c0.2,0.1,0.5,0.1,0.7,0.1c0.3,0,0.7,0,1-0.1s0.7-0.1,1.1-0.2v1.2c-0.2,0.1-0.3,0.1-0.5,0.1s-0.4,0.1-0.6,0.1
		c-0.2,0-0.4,0.1-0.6,0.1c-0.2,0-0.4,0-0.6,0c-0.5,0-0.9-0.1-1.3-0.2s-0.7-0.4-1-0.6c-0.3-0.3-0.5-0.6-0.6-1s-0.2-0.9-0.2-1.4
		s0.1-1,0.2-1.4s0.3-0.8,0.6-1.1s0.6-0.5,1-0.7c0.4-0.2,0.8-0.3,1.3-0.3s0.9,0.1,1.2,0.2s0.6,0.3,0.9,0.6s0.4,0.6,0.5,0.9
		C87.7,134.8,87.8,135.1,87.8,135.6z M86.2,135.3c0-0.3,0-0.5-0.1-0.7c-0.1-0.2-0.2-0.3-0.3-0.5c-0.1-0.1-0.3-0.2-0.4-0.3
		c-0.2-0.1-0.3-0.1-0.5-0.1c-0.4,0-0.7,0.1-1,0.4s-0.4,0.6-0.4,1.1H86.2z"/>
	<path d="M93,137.4c0,0.4-0.1,0.7-0.2,0.9c-0.2,0.3-0.4,0.5-0.7,0.6s-0.6,0.3-0.9,0.4s-0.7,0.1-1,0.1c-0.5,0-0.9,0-1.3-0.1
		c-0.4,0-0.7-0.1-1.1-0.2v-1.4c0.4,0.2,0.8,0.3,1.2,0.4s0.8,0.1,1.1,0.1c0.4,0,0.7-0.1,0.9-0.2s0.3-0.3,0.3-0.5c0-0.1,0-0.2-0.1-0.3
		s-0.1-0.2-0.2-0.2s-0.3-0.1-0.5-0.2s-0.5-0.2-0.8-0.3c-0.3-0.1-0.6-0.2-0.8-0.3c-0.2-0.1-0.4-0.2-0.6-0.4s-0.3-0.3-0.3-0.5
		s-0.1-0.4-0.1-0.7c0-0.3,0.1-0.5,0.2-0.7c0.1-0.2,0.3-0.4,0.5-0.6c0.2-0.2,0.5-0.3,0.9-0.4s0.8-0.1,1.2-0.1c0.4,0,0.8,0,1.1,0.1
		c0.3,0,0.6,0.1,0.8,0.1v1.3c-0.4-0.1-0.7-0.2-1-0.3c-0.3-0.1-0.6-0.1-1-0.1s-0.6,0.1-0.8,0.2s-0.3,0.3-0.3,0.5c0,0.1,0,0.2,0.1,0.3
		s0.1,0.1,0.2,0.2c0.1,0.1,0.3,0.1,0.5,0.2s0.5,0.2,0.8,0.3c0.4,0.1,0.7,0.2,0.9,0.3s0.5,0.3,0.6,0.4s0.3,0.3,0.3,0.5
		C93,136.9,93,137.1,93,137.4z"/>
	<path d="M95.1,134h-1.8v-1.2h3.4v5.2h1.9v1.2h-5.5v-1.2h2C95.1,138.1,95.1,134,95.1,134z M96.8,131.1c0,0.1,0,0.3-0.1,0.4
		s-0.1,0.2-0.2,0.3c-0.1,0.1-0.2,0.2-0.3,0.2c-0.1,0.1-0.3,0.1-0.4,0.1s-0.3,0-0.4-0.1c-0.1-0.1-0.2-0.1-0.3-0.2
		c-0.1-0.1-0.2-0.2-0.2-0.3c-0.1-0.1-0.1-0.3-0.1-0.4s0-0.3,0.1-0.4s0.1-0.2,0.2-0.3c0.1-0.1,0.2-0.2,0.3-0.2
		c0.1-0.1,0.3-0.1,0.4-0.1s0.3,0,0.4,0.1s0.2,0.1,0.3,0.2s0.2,0.2,0.2,0.3C96.8,130.8,96.8,130.9,96.8,131.1z"/>
	<path d="M103.5,133.9c0.1,0.1,0.2,0.3,0.3,0.5s0.1,0.3,0.1,0.5c0,0.4-0.1,0.7-0.2,0.9c-0.1,0.3-0.3,0.5-0.5,0.7
		c-0.2,0.2-0.5,0.3-0.8,0.4c-0.3,0.1-0.7,0.1-1,0.1c-0.2,0-0.4,0-0.6-0.1c-0.2,0-0.3-0.1-0.4-0.2c-0.1,0.1-0.1,0.1-0.2,0.2
		c-0.1,0.1-0.1,0.2-0.1,0.3c0,0.1,0,0.1,0.1,0.2c0,0.1,0.1,0.1,0.2,0.2s0.1,0.1,0.2,0.1c0.1,0,0.2,0.1,0.3,0.1l1.5,0.1
		c0.3,0,0.7,0.1,0.9,0.1s0.5,0.2,0.7,0.3c0.2,0.1,0.3,0.3,0.5,0.5c0.1,0.2,0.2,0.4,0.2,0.7c0,0.3-0.1,0.6-0.2,0.9
		c-0.1,0.3-0.3,0.5-0.6,0.7c-0.3,0.2-0.6,0.4-1,0.5s-0.9,0.2-1.4,0.2c-0.5,0-1,0-1.3-0.1c-0.4-0.1-0.7-0.2-0.9-0.4
		c-0.2-0.1-0.4-0.3-0.5-0.5c-0.1-0.2-0.2-0.4-0.2-0.7c0-0.1,0-0.3,0.1-0.4c0-0.1,0.1-0.3,0.2-0.4s0.2-0.2,0.3-0.3s0.3-0.2,0.4-0.3
		c-0.2-0.1-0.4-0.3-0.5-0.5s-0.2-0.4-0.2-0.6c0-0.1,0-0.3,0.1-0.4s0.1-0.2,0.2-0.4s0.1-0.2,0.2-0.3s0.2-0.2,0.3-0.3
		c-0.2-0.2-0.3-0.4-0.4-0.6s-0.2-0.5-0.2-0.8c0-0.4,0.1-0.7,0.2-1c0.1-0.3,0.3-0.5,0.5-0.7s0.5-0.3,0.8-0.4s0.7-0.1,1-0.1
		c0.2,0,0.4,0,0.6,0s0.3,0.1,0.5,0.1h2.2v1.1L103.5,133.9L103.5,133.9z M99.8,140.1c0,0.3,0.1,0.4,0.4,0.6c0.3,0.1,0.6,0.2,1.1,0.2
		c0.3,0,0.5,0,0.7-0.1c0.2-0.1,0.4-0.1,0.5-0.2s0.2-0.2,0.3-0.3c0.1-0.1,0.1-0.2,0.1-0.4c0-0.1,0-0.2-0.1-0.3
		c-0.1-0.1-0.1-0.1-0.2-0.2c-0.1-0.1-0.2-0.1-0.3-0.1s-0.3,0-0.4-0.1l-1.4,0c-0.1,0.1-0.2,0.2-0.3,0.2s-0.1,0.1-0.2,0.2
		c0,0.1-0.1,0.1-0.1,0.2S99.8,140.1,99.8,140.1z M100.1,135c0,0.3,0.1,0.6,0.3,0.8c0.2,0.2,0.5,0.3,0.8,0.3c0.2,0,0.4,0,0.5-0.1
		s0.3-0.1,0.3-0.3c0.1-0.1,0.2-0.2,0.2-0.4s0.1-0.3,0.1-0.4c0-0.4-0.1-0.6-0.3-0.8s-0.5-0.3-0.8-0.3c-0.2,0-0.4,0-0.5,0.1
		s-0.3,0.1-0.3,0.3s-0.2,0.2-0.2,0.4C100.1,134.6,100.1,134.8,100.1,135z"/>
	<path d="M108.2,139.3v-4.2c0-0.7-0.3-1.1-0.8-1.1c-0.3,0-0.5,0.1-0.8,0.3s-0.5,0.5-0.8,0.9v4.1h-1.6v-6.4h1.3l0,0.9
		c0.1-0.2,0.3-0.3,0.4-0.4c0.1-0.1,0.3-0.3,0.5-0.4c0.2-0.1,0.3-0.2,0.5-0.2s0.4-0.1,0.6-0.1c0.3,0,0.6,0.1,0.9,0.2
		c0.3,0.1,0.4,0.3,0.6,0.5c0.2,0.2,0.3,0.4,0.4,0.7c0.1,0.3,0.1,0.6,0.1,0.9v4.3L108.2,139.3L108.2,139.3z"/>
	<path d="M111.8,136.9c0.2,0,0.3,0,0.5,0.1c0.2,0.1,0.3,0.2,0.4,0.3c0.1,0.1,0.2,0.3,0.3,0.4c0.1,0.1,0.1,0.3,0.1,0.5s0,0.3-0.1,0.5
		s-0.2,0.3-0.3,0.4s-0.2,0.2-0.4,0.3s-0.3,0.1-0.5,0.1c-0.2,0-0.3,0-0.5-0.1s-0.3-0.1-0.4-0.3c-0.1-0.1-0.2-0.2-0.3-0.4
		s-0.1-0.3-0.1-0.5s0-0.3,0.1-0.5s0.2-0.3,0.3-0.4s0.2-0.2,0.4-0.3C111.5,137,111.6,136.9,111.8,136.9z"/>
	<path d="M118.8,133.9c0.1,0.1,0.2,0.3,0.3,0.5s0.1,0.3,0.1,0.5c0,0.4-0.1,0.7-0.2,0.9c-0.1,0.3-0.3,0.5-0.5,0.7
		c-0.2,0.2-0.5,0.3-0.8,0.4c-0.3,0.1-0.7,0.1-1,0.1c-0.2,0-0.4,0-0.6-0.1c-0.2,0-0.3-0.1-0.4-0.2c-0.1,0.1-0.1,0.1-0.2,0.2
		c-0.1,0.1-0.1,0.2-0.1,0.3c0,0.1,0,0.1,0.1,0.2c0,0.1,0.1,0.1,0.2,0.2s0.1,0.1,0.2,0.1c0.1,0,0.2,0.1,0.3,0.1l1.5,0.1
		c0.3,0,0.7,0.1,0.9,0.1s0.5,0.2,0.7,0.3c0.2,0.1,0.3,0.3,0.5,0.5c0.1,0.2,0.2,0.4,0.2,0.7c0,0.3-0.1,0.6-0.2,0.9
		c-0.1,0.3-0.3,0.5-0.6,0.7c-0.3,0.2-0.6,0.4-1,0.5s-0.9,0.2-1.4,0.2c-0.5,0-1,0-1.3-0.1c-0.4-0.1-0.7-0.2-0.9-0.4
		c-0.2-0.1-0.4-0.3-0.5-0.5c-0.1-0.2-0.2-0.4-0.2-0.7c0-0.1,0-0.3,0.1-0.4c0-0.1,0.1-0.3,0.2-0.4s0.2-0.2,0.3-0.3s0.3-0.2,0.4-0.3
		c-0.2-0.1-0.4-0.3-0.5-0.5s-0.2-0.4-0.2-0.6c0-0.1,0-0.3,0.1-0.4s0.1-0.2,0.2-0.4s0.1-0.2,0.2-0.3s0.2-0.2,0.3-0.3
		c-0.2-0.2-0.3-0.4-0.4-0.6s-0.2-0.5-0.2-0.8c0-0.4,0.1-0.7,0.2-1c0.1-0.3,0.3-0.5,0.5-0.7s0.5-0.3,0.8-0.4s0.7-0.1,1-0.1
		c0.2,0,0.4,0,0.6,0s0.3,0.1,0.5,0.1h2.2v1.1L118.8,133.9L118.8,133.9z M115.1,140.1c0,0.3,0.1,0.4,0.4,0.6c0.3,0.1,0.6,0.2,1.1,0.2
		c0.3,0,0.5,0,0.7-0.1c0.2-0.1,0.4-0.1,0.5-0.2s0.2-0.2,0.3-0.3c0.1-0.1,0.1-0.2,0.1-0.4c0-0.1,0-0.2-0.1-0.3
		c-0.1-0.1-0.1-0.1-0.2-0.2c-0.1-0.1-0.2-0.1-0.3-0.1s-0.3,0-0.4-0.1l-1.4,0c-0.1,0.1-0.2,0.2-0.3,0.2s-0.1,0.1-0.2,0.2
		c0,0.1-0.1,0.1-0.1,0.2S115.1,140.1,115.1,140.1z M115.4,135c0,0.3,0.1,0.6,0.3,0.8c0.2,0.2,0.5,0.3,0.8,0.3c0.2,0,0.4,0,0.5-0.1
		s0.3-0.1,0.3-0.3c0.1-0.1,0.2-0.2,0.2-0.4s0.1-0.3,0.1-0.4c0-0.4-0.1-0.6-0.3-0.8s-0.5-0.3-0.8-0.3c-0.2,0-0.4,0-0.5,0.1
		s-0.3,0.1-0.3,0.3s-0.2,0.2-0.2,0.4C115.4,134.6,115.4,134.8,115.4,135z"/>
	<path d="M121.6,134h-1.8v-1.2h3.4v5.2h1.9v1.2h-5.5v-1.2h2C121.6,138.1,121.6,134,121.6,134z M123.3,131.1c0,0.1,0,0.3-0.1,0.4
		s-0.1,0.2-0.2,0.3c-0.1,0.1-0.2,0.2-0.3,0.2c-0.1,0.1-0.3,0.1-0.4,0.1s-0.3,0-0.4-0.1c-0.1-0.1-0.2-0.1-0.3-0.2
		c-0.1-0.1-0.2-0.2-0.2-0.3c-0.1-0.1-0.1-0.3-0.1-0.4s0-0.3,0.1-0.4s0.1-0.2,0.2-0.3c0.1-0.1,0.2-0.2,0.3-0.2
		c0.1-0.1,0.3-0.1,0.4-0.1s0.3,0,0.4,0.1s0.2,0.1,0.3,0.2s0.2,0.2,0.2,0.3C123.3,130.8,123.3,130.9,123.3,131.1z"/>
	<path d="M129.7,139.2c-0.3,0.1-0.6,0.1-0.8,0.1s-0.6,0.1-0.8,0.1c-0.4,0-0.8,0-1.1-0.1s-0.6-0.2-0.8-0.4c-0.2-0.2-0.3-0.4-0.4-0.7
		c-0.1-0.3-0.1-0.6-0.1-1V134h-1.7v-1.2h1.7v-1.6l1.6-0.4v2.1h2.5v1.2h-2.5v3c0,0.4,0.1,0.6,0.3,0.8s0.4,0.3,0.8,0.3
		c0.3,0,0.5,0,0.7-0.1s0.5-0.1,0.7-0.1L129.7,139.2L129.7,139.2z"/>
	<path d="M131.3,137c0.2,0,0.3,0,0.5,0.1c0.1,0.1,0.3,0.2,0.4,0.3c0.1,0.1,0.2,0.3,0.3,0.4s0.1,0.3,0.1,0.5s0,0.3-0.1,0.5
		s-0.1,0.3-0.3,0.4s-0.2,0.2-0.4,0.3s-0.3,0.1-0.5,0.1c-0.2,0-0.3,0-0.5-0.1s-0.3-0.1-0.4-0.3c-0.1-0.1-0.2-0.2-0.3-0.4
		s-0.1-0.3-0.1-0.5s0-0.3,0.1-0.5s0.1-0.3,0.3-0.4s0.2-0.2,0.4-0.3S131.1,137,131.3,137z"/>
	<path d="M134.9,134H133v-1.2h3.4v5.2h1.9v1.2h-5.5v-1.2h2L134.9,134L134.9,134z M136.6,131.1c0,0.1,0,0.3-0.1,0.4s-0.1,0.2-0.2,0.3
		c-0.1,0.1-0.2,0.2-0.3,0.2c-0.1,0.1-0.3,0.1-0.4,0.1s-0.3,0-0.4-0.1c-0.1-0.1-0.2-0.1-0.3-0.2c-0.1-0.1-0.2-0.2-0.2-0.3
		c-0.1-0.1-0.1-0.3-0.1-0.4s0-0.3,0.1-0.4s0.1-0.2,0.2-0.3c0.1-0.1,0.2-0.2,0.3-0.2c0.1-0.1,0.3-0.1,0.4-0.1s0.3,0,0.4,0.1
		s0.2,0.1,0.3,0.2c0.1,0.1,0.2,0.2,0.2,0.3C136.6,130.8,136.6,130.9,136.6,131.1z"/>
	<path d="M143.2,136c0,0.5-0.1,1-0.2,1.4s-0.4,0.8-0.6,1.1c-0.3,0.3-0.6,0.5-1,0.7c-0.4,0.2-0.8,0.3-1.4,0.3c-0.5,0-0.9-0.1-1.3-0.2
		c-0.4-0.1-0.7-0.4-1-0.6s-0.5-0.6-0.6-1s-0.2-0.9-0.2-1.5c0-0.5,0.1-1,0.2-1.4s0.4-0.8,0.6-1.1c0.3-0.3,0.6-0.5,1-0.7
		s0.8-0.2,1.3-0.2c0.5,0,0.9,0.1,1.3,0.2s0.7,0.4,1,0.6c0.3,0.3,0.5,0.6,0.6,1C143.1,135,143.2,135.5,143.2,136z M141.6,136
		c0-0.7-0.1-1.2-0.4-1.5s-0.6-0.5-1.1-0.5c-0.3,0-0.5,0.1-0.7,0.2s-0.4,0.3-0.5,0.4s-0.2,0.4-0.3,0.6c-0.1,0.3-0.1,0.5-0.1,0.8
		c0,0.7,0.1,1.2,0.4,1.5s0.6,0.5,1.1,0.5c0.3,0,0.5-0.1,0.7-0.2c0.2-0.1,0.3-0.3,0.5-0.4c0.1-0.2,0.2-0.4,0.3-0.6
		C141.5,136.6,141.6,136.3,141.6,136z"/>
</g>
<rect x="0" y="0.2" width="227.8" height="53.8"/>
<g>
	<path d="M35.7,89.8c-1.3-1.1-2.2-2.2-2.8-3.4s-1-2.6-1-4c0-0.8,0.1-1.5,0.3-2.3s0.5-1.4,0.8-2c0.3-0.6,0.8-1.2,1.2-1.8
		c0.5-0.5,1-1.1,1.5-1.5l1.1,1.1c-1,0.9-1.8,1.9-2.3,2.9c-0.5,1.1-0.8,2.2-0.8,3.3c0,1.2,0.3,2.3,0.8,3.4s1.3,2.1,2.3,3L35.7,89.8z"
		/>
	<path d="M44,80.9c0,0.8-0.1,1.5-0.2,2.1c-0.1,0.6-0.3,1.1-0.6,1.5s-0.5,0.8-0.9,1c-0.3,0.3-0.7,0.5-1.1,0.6s-0.9,0.3-1.3,0.3
		c-0.5,0.1-1,0.1-1.5,0.1h-1.2v-1.6h1.4c0.6,0,1.1-0.1,1.5-0.2s0.7-0.3,1-0.5s0.4-0.5,0.6-0.8c0.1-0.3,0.2-0.7,0.3-1.1l0-0.2
		c-0.3,0.1-0.6,0.2-1,0.3c-0.3,0.1-0.7,0.1-1.1,0.1c-0.5,0-1-0.1-1.3-0.2c-0.4-0.1-0.8-0.3-1-0.6s-0.5-0.6-0.7-1s-0.2-0.9-0.2-1.4
		c0-0.5,0.1-1,0.3-1.4c0.2-0.4,0.4-0.8,0.8-1.1s0.7-0.5,1.2-0.7s1-0.3,1.5-0.3c0.5,0,1,0.1,1.5,0.2s0.8,0.4,1.2,0.8
		c0.3,0.4,0.6,0.8,0.8,1.4C43.9,79.2,44,80,44,80.9z M40.2,77.8c-0.3,0-0.5,0-0.7,0.1c-0.2,0.1-0.4,0.2-0.5,0.3s-0.3,0.3-0.3,0.5
		s-0.1,0.4-0.1,0.7c0,0.6,0.2,1,0.4,1.2c0.3,0.3,0.7,0.4,1.2,0.4c0.1,0,0.3,0,0.5,0s0.3-0.1,0.5-0.1s0.3-0.1,0.5-0.2
		c0.1-0.1,0.3-0.1,0.4-0.2c0-0.5,0-0.9-0.1-1.2c-0.1-0.3-0.2-0.7-0.3-0.9S41.2,78.1,41,78S40.5,77.8,40.2,77.8z"/>
	<path d="M47.2,86.6H45l4.1-8.4h-4.9v-1.8h7.1V78L47.2,86.6z"/>
	<path d="M56.8,81.2c0.3,0.1,0.5,0.3,0.7,0.5c0.2,0.2,0.4,0.4,0.6,0.6c0.2,0.2,0.3,0.5,0.4,0.8s0.2,0.6,0.2,0.9
		c0,0.5-0.1,0.9-0.3,1.2c-0.2,0.3-0.5,0.7-0.8,0.9c-0.3,0.2-0.7,0.4-1.2,0.5s-0.9,0.2-1.4,0.2c-0.6,0-1.1-0.1-1.5-0.2
		s-0.8-0.3-1.1-0.5c-0.3-0.2-0.5-0.5-0.7-0.8s-0.2-0.7-0.2-1.1c0-0.3,0-0.7,0.2-0.9s0.2-0.5,0.4-0.8c0.2-0.2,0.4-0.4,0.6-0.6
		s0.5-0.3,0.7-0.5c-0.2-0.1-0.5-0.3-0.7-0.4c-0.2-0.2-0.4-0.3-0.5-0.6s-0.3-0.4-0.4-0.7s-0.1-0.5-0.1-0.8c0-0.4,0.1-0.7,0.2-1
		c0.1-0.3,0.4-0.6,0.6-0.9c0.3-0.2,0.6-0.4,1.1-0.6s0.9-0.2,1.5-0.2c0.5,0,1,0.1,1.4,0.2s0.8,0.3,1,0.5c0.3,0.2,0.5,0.5,0.7,0.8
		s0.2,0.6,0.2,1c0,0.3,0,0.6-0.1,0.9c-0.1,0.3-0.2,0.5-0.4,0.7s-0.3,0.4-0.5,0.6C57.2,80.9,57,81,56.8,81.2z M54.9,82.2
		c-0.2,0.1-0.4,0.2-0.6,0.3s-0.3,0.3-0.5,0.4s-0.2,0.3-0.3,0.5s-0.1,0.4-0.1,0.6c0,0.4,0.2,0.7,0.5,0.9c0.3,0.2,0.7,0.3,1.2,0.3
		c0.2,0,0.5,0,0.7-0.1s0.4-0.1,0.5-0.2c0.2-0.1,0.3-0.2,0.4-0.4c0.1-0.2,0.1-0.3,0.1-0.6c0-0.2,0-0.4-0.2-0.6
		c-0.1-0.2-0.2-0.3-0.4-0.5c-0.2-0.2-0.4-0.3-0.6-0.4C55.4,82.4,55.1,82.3,54.9,82.2z M55.3,80.4c0.2-0.1,0.4-0.2,0.5-0.3
		s0.3-0.3,0.4-0.4s0.2-0.3,0.3-0.5s0.1-0.3,0.1-0.6c0-0.3-0.1-0.6-0.4-0.8c-0.3-0.2-0.7-0.3-1.2-0.3c-0.5,0-0.9,0.1-1.1,0.3
		c-0.3,0.2-0.4,0.5-0.4,0.8c0,0.2,0,0.4,0.1,0.5s0.2,0.3,0.4,0.4s0.3,0.3,0.5,0.4C54.8,80.2,55,80.3,55.3,80.4z"/>
	<path d="M59.9,74.9c1.3,1.1,2.2,2.2,2.8,3.4c0.6,1.2,0.9,2.6,0.9,4c0,0.8-0.1,1.5-0.3,2.2s-0.5,1.4-0.8,2s-0.7,1.2-1.2,1.8
		c-0.5,0.5-1,1.1-1.5,1.5l-1.1-1.1c1-0.9,1.8-1.9,2.3-3s0.8-2.2,0.8-3.3c0-1.2-0.3-2.3-0.8-3.4s-1.3-2.1-2.3-3L59.9,74.9z"/>
	<path d="M69.9,81.2c0.3,0.1,0.5,0.3,0.7,0.5c0.2,0.2,0.4,0.4,0.6,0.6c0.2,0.2,0.3,0.5,0.4,0.8c0.1,0.3,0.2,0.6,0.2,0.9
		c0,0.5-0.1,0.9-0.3,1.2c-0.2,0.3-0.4,0.7-0.8,0.9s-0.7,0.4-1.2,0.5s-0.9,0.2-1.4,0.2c-0.6,0-1.1-0.1-1.5-0.2s-0.8-0.3-1.1-0.5
		c-0.3-0.2-0.5-0.5-0.7-0.8s-0.2-0.7-0.2-1.1c0-0.3,0.1-0.7,0.2-0.9s0.2-0.5,0.4-0.8c0.2-0.2,0.4-0.4,0.6-0.6s0.5-0.3,0.7-0.5
		c-0.2-0.1-0.4-0.3-0.7-0.4c-0.2-0.2-0.4-0.3-0.5-0.6S65,80,64.9,79.7s-0.1-0.5-0.1-0.8c0-0.4,0.1-0.7,0.2-1
		c0.1-0.3,0.4-0.6,0.6-0.9c0.3-0.2,0.6-0.4,1.1-0.6s0.9-0.2,1.5-0.2c0.5,0,1,0.1,1.4,0.2s0.8,0.3,1.1,0.5c0.3,0.2,0.5,0.5,0.7,0.8
		s0.2,0.6,0.2,1c0,0.3,0,0.6-0.1,0.9c-0.1,0.3-0.2,0.5-0.4,0.7s-0.3,0.4-0.5,0.6C70.3,80.9,70.1,81,69.9,81.2z M68,82.2
		c-0.2,0.1-0.4,0.2-0.6,0.3s-0.3,0.3-0.5,0.4c-0.1,0.2-0.2,0.3-0.3,0.5s-0.1,0.4-0.1,0.6c0,0.4,0.2,0.7,0.5,0.9
		c0.3,0.2,0.7,0.3,1.2,0.3c0.2,0,0.4,0,0.7-0.1s0.4-0.1,0.5-0.2c0.2-0.1,0.3-0.2,0.4-0.4c0.1-0.2,0.1-0.3,0.1-0.6
		c0-0.2-0.1-0.4-0.2-0.6s-0.2-0.3-0.4-0.5c-0.2-0.2-0.4-0.3-0.6-0.4C68.5,82.4,68.2,82.3,68,82.2z M68.4,80.4
		c0.2-0.1,0.4-0.2,0.5-0.3s0.3-0.3,0.4-0.4s0.2-0.3,0.3-0.5s0.1-0.3,0.1-0.6c0-0.3-0.1-0.6-0.4-0.8c-0.3-0.2-0.7-0.3-1.2-0.3
		c-0.5,0-0.9,0.1-1.1,0.3c-0.3,0.2-0.4,0.5-0.4,0.8c0,0.2,0,0.4,0.1,0.5s0.2,0.3,0.4,0.4s0.3,0.3,0.6,0.4
		C67.9,80.2,68.1,80.3,68.4,80.4z"/>
	<path d="M79.9,81.4c0,0.8-0.1,1.6-0.3,2.3s-0.4,1.2-0.8,1.7c-0.3,0.5-0.8,0.8-1.3,1s-1.1,0.4-1.7,0.4c-0.6,0-1.1-0.1-1.6-0.3
		s-0.9-0.5-1.2-0.9c-0.3-0.4-0.6-1-0.8-1.6c-0.2-0.7-0.3-1.4-0.3-2.4c0-0.8,0.1-1.6,0.3-2.3c0.2-0.7,0.4-1.2,0.8-1.7
		c0.3-0.5,0.8-0.8,1.3-1s1.1-0.4,1.7-0.4c0.6,0,1.1,0.1,1.6,0.3c0.5,0.2,0.9,0.5,1.2,0.9s0.6,1,0.8,1.6
		C79.8,79.7,79.9,80.5,79.9,81.4z M73.9,81.4c0,0.1,0,0.2,0,0.3c0,0.1,0,0.2,0,0.3l3.8-2.8c-0.2-0.5-0.4-0.9-0.7-1.1
		c-0.3-0.3-0.7-0.4-1.1-0.4c-0.3,0-0.6,0.1-0.8,0.2s-0.5,0.4-0.7,0.7c-0.2,0.3-0.3,0.7-0.4,1.2C73.9,80.3,73.9,80.8,73.9,81.4z
		 M78,81.5c0-0.1,0-0.2,0-0.3c0-0.1,0-0.2,0-0.3l-3.8,2.8c0.2,0.5,0.4,0.9,0.7,1.1c0.3,0.3,0.7,0.4,1.1,0.4c0.3,0,0.6-0.1,0.8-0.2
		c0.3-0.2,0.5-0.4,0.7-0.7s0.3-0.7,0.4-1.2C77.9,82.7,78,82.1,78,81.5z"/>
	<path d="M85.4,81.2c0.3,0.1,0.5,0.3,0.7,0.5c0.2,0.2,0.4,0.4,0.6,0.6c0.2,0.2,0.3,0.5,0.4,0.8c0.1,0.3,0.2,0.6,0.2,0.9
		c0,0.5-0.1,0.9-0.3,1.2c-0.2,0.3-0.4,0.7-0.8,0.9s-0.7,0.4-1.2,0.5s-0.9,0.2-1.4,0.2c-0.6,0-1.1-0.1-1.5-0.2s-0.8-0.3-1.1-0.5
		c-0.3-0.2-0.5-0.5-0.7-0.8s-0.2-0.7-0.2-1.1c0-0.3,0.1-0.7,0.2-0.9s0.2-0.5,0.4-0.8c0.2-0.2,0.4-0.4,0.6-0.6s0.5-0.3,0.7-0.5
		c-0.2-0.1-0.4-0.3-0.7-0.4c-0.2-0.2-0.4-0.3-0.5-0.6s-0.3-0.4-0.4-0.7s-0.1-0.5-0.1-0.8c0-0.4,0.1-0.7,0.2-1
		c0.1-0.3,0.4-0.6,0.6-0.9c0.3-0.2,0.6-0.4,1.1-0.6s0.9-0.2,1.5-0.2c0.5,0,1,0.1,1.4,0.2s0.8,0.3,1.1,0.5c0.3,0.2,0.5,0.5,0.7,0.8
		s0.2,0.6,0.2,1c0,0.3,0,0.6-0.1,0.9c-0.1,0.3-0.2,0.5-0.4,0.7s-0.3,0.4-0.5,0.6C85.8,80.9,85.6,81,85.4,81.2z M83.5,82.2
		c-0.2,0.1-0.4,0.2-0.6,0.3s-0.3,0.3-0.5,0.4c-0.1,0.2-0.2,0.3-0.3,0.5S82,83.8,82,84c0,0.4,0.2,0.7,0.5,0.9
		c0.3,0.2,0.7,0.3,1.2,0.3c0.2,0,0.4,0,0.7-0.1s0.4-0.1,0.5-0.2c0.2-0.1,0.3-0.2,0.4-0.4c0.1-0.2,0.1-0.3,0.1-0.6
		c0-0.2-0.1-0.4-0.2-0.6S85,83.1,84.8,83c-0.2-0.2-0.4-0.3-0.6-0.4C84,82.4,83.8,82.3,83.5,82.2z M83.9,80.4
		c0.2-0.1,0.4-0.2,0.5-0.3s0.3-0.3,0.4-0.4s0.2-0.3,0.3-0.5s0.1-0.3,0.1-0.6c0-0.3-0.1-0.6-0.4-0.8c-0.3-0.2-0.7-0.3-1.2-0.3
		c-0.5,0-0.9,0.1-1.1,0.3c-0.3,0.2-0.4,0.5-0.4,0.8c0,0.2,0,0.4,0.1,0.5s0.2,0.3,0.4,0.4s0.3,0.3,0.6,0.4
		C83.4,80.2,83.7,80.3,83.9,80.4z"/>
	<path d="M88.4,83.2v-1.7h4.9v1.7H88.4z"/>
	<path d="M101,83.4c0,0.5-0.1,1-0.3,1.4s-0.5,0.8-0.9,1c-0.4,0.3-0.9,0.5-1.5,0.7s-1.3,0.2-2.1,0.2c-0.2,0-0.4,0-0.6,0s-0.4,0-0.6,0
		s-0.4,0-0.6-0.1c-0.2,0-0.3,0-0.5-0.1v-1.7c0.3,0.1,0.7,0.1,1.1,0.2s0.8,0.1,1.3,0.1c0.4,0,0.8,0,1.1-0.1c0.3-0.1,0.6-0.2,0.8-0.3
		s0.3-0.3,0.4-0.5s0.1-0.4,0.1-0.7c0-0.2-0.1-0.4-0.2-0.6s-0.3-0.3-0.4-0.5c-0.2-0.1-0.5-0.2-0.8-0.3S96.9,82,96.5,82h-1.1v-1.4h1
		c0.4,0,0.7,0,1-0.1c0.3-0.1,0.5-0.2,0.6-0.3c0.2-0.1,0.3-0.3,0.3-0.5s0.1-0.4,0.1-0.6c0-0.4-0.1-0.7-0.4-0.9
		c-0.3-0.2-0.7-0.3-1.3-0.3c-0.4,0-0.8,0-1.2,0.1s-0.8,0.2-1.2,0.3v-1.6c0.2-0.1,0.5-0.1,0.7-0.2c0.2-0.1,0.4-0.1,0.6-0.1
		c0.2,0,0.4-0.1,0.7-0.1s0.4,0,0.7,0c0.6,0,1.1,0.1,1.5,0.2c0.4,0.1,0.8,0.3,1.1,0.5s0.5,0.5,0.7,0.8c0.2,0.3,0.2,0.7,0.2,1.1
		c0,0.6-0.1,1.1-0.4,1.5s-0.7,0.7-1.2,0.9c0.3,0.1,0.6,0.1,0.9,0.3c0.3,0.1,0.5,0.3,0.7,0.5s0.3,0.4,0.4,0.7
		C100.9,82.8,101,83.1,101,83.4z"/>
	<path d="M108.1,83.4c0,0.5-0.1,1-0.3,1.4s-0.5,0.8-0.9,1c-0.4,0.3-0.9,0.5-1.5,0.7s-1.3,0.2-2.1,0.2c-0.2,0-0.4,0-0.6,0
		s-0.4,0-0.6,0s-0.4,0-0.6-0.1c-0.2,0-0.3,0-0.5-0.1v-1.7c0.3,0.1,0.7,0.1,1.1,0.2s0.8,0.1,1.3,0.1c0.4,0,0.8,0,1.1-0.1
		c0.3-0.1,0.6-0.2,0.8-0.3s0.3-0.3,0.4-0.5s0.1-0.4,0.1-0.7c0-0.2-0.1-0.4-0.2-0.6s-0.3-0.3-0.4-0.5c-0.2-0.1-0.5-0.2-0.8-0.3
		S104,82,103.6,82h-1.1v-1.4h1c0.4,0,0.7,0,1-0.1c0.3-0.1,0.5-0.2,0.6-0.3c0.2-0.1,0.3-0.3,0.3-0.5s0.1-0.4,0.1-0.6
		c0-0.4-0.1-0.7-0.4-0.9c-0.3-0.2-0.7-0.3-1.3-0.3c-0.4,0-0.8,0-1.2,0.1s-0.8,0.2-1.2,0.3v-1.6c0.2-0.1,0.5-0.1,0.7-0.2
		c0.2-0.1,0.4-0.1,0.6-0.1c0.2,0,0.4-0.1,0.7-0.1s0.4,0,0.7,0c0.6,0,1.1,0.1,1.5,0.2c0.4,0.1,0.8,0.3,1.1,0.5s0.5,0.5,0.7,0.8
		c0.2,0.3,0.2,0.7,0.2,1.1c0,0.6-0.1,1.1-0.4,1.5s-0.7,0.7-1.2,0.9c0.3,0.1,0.6,0.1,0.9,0.3c0.3,0.1,0.5,0.3,0.7,0.5
		s0.3,0.4,0.4,0.7C108,82.8,108.1,83.1,108.1,83.4z"/>
	<path d="M115.4,83.3c0,0.6-0.1,1-0.3,1.5c-0.2,0.4-0.6,0.8-0.9,1.1c-0.4,0.3-0.9,0.5-1.4,0.7s-1.2,0.2-1.8,0.2c-0.2,0-0.3,0-0.5,0
		c-0.2,0-0.4,0-0.6,0s-0.4,0-0.6-0.1s-0.3-0.1-0.5-0.1v-1.7c0.3,0.1,0.6,0.1,1,0.2c0.4,0,0.8,0.1,1.2,0.1c0.8,0,1.4-0.2,1.8-0.4
		c0.4-0.3,0.6-0.7,0.6-1.3c0-0.6-0.2-1-0.6-1.2c-0.4-0.3-1-0.4-1.8-0.4h-2v-5.4h5.9v1.8h-4.1v2.1h0.7c0.5,0,1,0.1,1.5,0.1
		s0.9,0.3,1.3,0.5c0.4,0.2,0.7,0.6,0.9,0.9C115.3,82.2,115.4,82.7,115.4,83.3z"/>
	<path d="M118.6,86.6h-2.2l4.1-8.4h-4.9v-1.8h7.1V78L118.6,86.6z"/>
</g>
<g>
	<g>
		<g>
			<path class="st1" d="M3.1,22.8l1.8-1.9c1,1.4,2.2,2,3.4,2c2.1,0,3.1-1,3.1-3.5v-8.6H4.5V8.3h9.9v11.4c0,3.3-1.5,5.9-6,5.9
				C6.5,25.6,4.4,24.8,3.1,22.8z"/>
			<path class="st1" d="M17.4,21.9c0-2.9,2.5-4.3,8.8-4.7c-0.1-1.4-1-2.5-3-2.5c-1.4,0-2.9,0.6-4.2,1.4l-1.1-2
				c1.5-0.9,3.6-1.8,5.8-1.8c3.5,0,5.5,2,5.5,5.5v7.6h-2.5l-0.2-1.6h-0.1c-1.3,1-3.1,1.9-4.8,1.9C19.2,25.6,17.4,24.1,17.4,21.9z
				 M26.2,21.7V19c-4.6,0.3-5.9,1.2-5.9,2.6c0,1.1,1,1.6,2.3,1.6C23.9,23.3,25,22.6,26.2,21.7z"/>
			<path class="st1" d="M31,12.5h2.3l0.2,1.6h0.1c0.6-1.1,1.4-1.9,2.8-1.9c1.2,0,2,0.7,2.3,2.1c0.6-1.3,1.4-2.1,2.9-2.1
				c1.8,0,2.8,1.5,2.8,4v9h-2.9v-8.8c0-1.1-0.3-1.7-1-1.7c-0.7,0-1.1,0.5-1.6,1.6v8.9h-2.5v-8.8c0-1.1-0.3-1.7-1-1.7
				c-0.7,0-1.1,0.5-1.6,1.6v8.9H31C31,25.3,31,12.5,31,12.5z"/>
			<path class="st1" d="M45.9,18.9c0-4.2,3.2-6.7,6.6-6.7c3.8,0,5.9,2.5,5.9,6.1c0,0.6-0.1,1.2-0.1,1.5H48.1v-2.1h8.3l-0.6,0.7
				c0-2.5-1.2-3.8-3.2-3.8c-2.1,0-3.7,1.5-3.7,4.4c0,3,1.8,4.4,4.4,4.4c1.3,0,2.4-0.4,3.6-1l1,1.9c-1.4,0.9-3.1,1.5-5,1.5
				C49,25.6,45.9,23.1,45.9,18.9z"/>
			<path class="st1" d="M59.9,23.6l1.3-1.9c1.5,1,3.3,1.6,5.3,1.6c1.8,0,2.6-0.7,2.6-1.5c0-0.8-0.6-1.3-3.5-1.9
				c-3.4-0.7-4.9-1.9-4.9-3.9c0-2.2,2-3.8,5.6-3.8c2.1,0,4.1,0.8,5.3,1.7l-1.4,1.9c-1.2-0.8-2.7-1.3-4.2-1.3c-1.7,0-2.3,0.6-2.3,1.4
				c0,0.9,0.9,1.2,3.3,1.7c4.1,0.9,5.1,2,5.1,4c0,2.2-2.1,4-6,4C63.8,25.6,61.5,24.7,59.9,23.6z"/>
			<path class="st1" d="M85,8.3h5.7c3.5,0,6.3,1.3,6.3,5.1c0,3.6-2.7,5.3-6.3,5.3H88v6.6h-3V8.3z M90.3,16.3c2.3,0,3.6-1,3.6-2.9
				c0-1.9-1.3-2.6-3.6-2.6H88v5.5L90.3,16.3L90.3,16.3z M92.3,16l5.3,9.3h-3.4l-4.1-7.4L92.3,16z"/>
			<path class="st1" d="M98.9,20.4v-7.9h3v7.5c0,2,0.6,3,2.4,3c1.2,0,2.1-0.5,3.2-1.9v-8.6h3v12.8H108l-0.2-2h-0.1
				c-1.2,1.4-2.6,2.3-4.5,2.3C100.2,25.6,98.9,23.7,98.9,20.4z"/>
			<path class="st1" d="M116.1,20.2v-5.3h-3.4v-2.2l3.5-0.1l0.4-4h2.5v4h5.8v2.4h-5.8v5.2c0,2.1,0.8,3.1,2.9,3.1
				c1.1,0,1.9-0.2,2.8-0.5l0.6,2.2c-1.1,0.4-2.4,0.7-4.1,0.7C117.4,25.6,116.1,23.4,116.1,20.2z"/>
			<path class="st1" d="M127.2,6.9h3v4.7l-0.2,2.7h0.1c1.1-1.2,2.6-2.2,4.5-2.2c2.9,0,4.3,1.9,4.3,5.2v7.9h-3v-7.5
				c0-2.1-0.7-3-2.4-3c-1.3,0-2.1,0.6-3.3,1.8v8.7h-3C127.2,25.3,127.2,6.9,127.2,6.9z"/>
		</g>
	</g>
	<g>
		<g>
			<path class="st0" d="M11,36.2c0-3.2,1.8-5.1,4.4-5.1c1.3,0,2.2,0.6,2.7,1.2l-0.7,0.8c-0.5-0.5-1-0.9-2-0.9c-1.9,0-3,1.5-3,4
				c0,2.5,1.1,4,3,4c0.7,0,1.3-0.2,1.7-0.6v-2.6h-1.9v-1h3.1v4.1c-0.6,0.6-1.7,1.1-2.9,1.1C12.8,41.3,11,39.5,11,36.2z"/>
			<path class="st0" d="M20.8,33.9h1l0.1,1.7h0c0.8-1.2,1.9-1.9,3.3-1.9c0.5,0,1,0.1,1.4,0.3L26.4,35c-0.5-0.2-0.8-0.2-1.4-0.2
				c-1.1,0-2.1,0.6-3,2.1v4.3h-1.2V33.9z"/>
			<path class="st0" d="M28.1,39.3c0-1.6,1.5-2.4,5.3-2.7c0-1-0.5-1.8-1.9-1.8c-0.9,0-1.9,0.5-2.5,0.9l-0.5-0.8c0.8-0.5,2-1,3.3-1
				c2,0,3,1.2,3,3v4.5h-1l-0.1-1h0c-0.8,0.6-1.8,1.2-2.9,1.2C29.3,41.3,28.1,40.6,28.1,39.3z M33.4,39.3v-1.9
				c-3.1,0.2-4.1,0.8-4.1,1.8c0,0.8,0.8,1.2,1.6,1.2C31.8,40.3,32.6,39.9,33.4,39.3z"/>
			<path class="st0" d="M36.6,33.9h1l0.1,0.9h0c0.7-0.7,1.6-1.1,2.5-1.1c2,0,3,1.5,3,3.7c0,2.5-1.6,3.9-3.3,3.9
				c-0.7,0-1.5-0.3-2.2-1h0l0.1,1.4v2.5h-1.3V33.9z M42,37.4c0-1.6-0.6-2.7-2.1-2.7c-0.6,0-1.4,0.3-2.1,1.1v3.6
				c0.7,0.6,1.4,0.8,1.9,0.8C41.1,40.3,42,39.2,42,37.4z"/>
			<path class="st0" d="M45,30.5h1.3v2.9l-0.1,1.7h0c0.7-0.8,1.6-1.4,2.7-1.4c1.7,0,2.5,1,2.5,2.9v4.5h-1.3v-4.4c0-1.4-0.5-2-1.7-2
				c-0.9,0-1.5,0.4-2.3,1.3v5.1H45V30.5z"/>
			<path class="st0" d="M56.7,34.9h-3.4v-1h4.6v7.3h-1.3L56.7,34.9L56.7,34.9z M56.2,31.4c0-0.6,0.4-1,1-1s1,0.4,1,1
				c0,0.6-0.4,1-1,1S56.2,32,56.2,31.4z"/>
			<path class="st0" d="M61.6,37.5c0-2.4,1.9-3.8,4.1-3.8c1.2,0,2.1,0.5,2.7,1.1l-0.6,0.8c-0.6-0.5-1.2-0.8-2-0.8
				c-1.7,0-2.8,1.1-2.8,2.8s1.1,2.8,2.8,2.8c0.9,0,1.7-0.4,2.3-0.9l0.6,0.8c-0.8,0.7-1.8,1.1-2.9,1.1C63.3,41.3,61.6,39.9,61.6,37.5
				z"/>
			<path class="st0" d="M78.4,31.3h2.4c3,0,4.6,1.8,4.6,4.9c0,3.1-1.6,5-4.5,5h-2.5V31.3z M80.8,40.1c2.2,0,3.3-1.4,3.3-3.9
				c0-2.5-1.1-3.8-3.3-3.8h-1.1v7.8H80.8z"/>
			<path class="st0" d="M86.9,37.5c0-2.4,1.8-3.8,3.7-3.8c2.1,0,3.3,1.4,3.3,3.4c0,0.3,0,0.6-0.1,0.8h-6.2v-1h5.4l-0.3,0.3
				c0-1.7-0.9-2.6-2.2-2.6c-1.3,0-2.5,1-2.5,2.8c0,1.9,1.2,2.8,2.8,2.8c0.9,0,1.6-0.3,2.2-0.7l0.4,0.8c-0.7,0.5-1.7,0.9-2.8,0.9
				C88.6,41.3,86.9,39.9,86.9,37.5z"/>
			<path class="st0" d="M95.6,40.2l0.6-0.8c0.8,0.6,1.8,1,3.2,1c1.2,0,1.8-0.5,1.8-1.1c0-0.6-0.3-0.9-2.3-1.3
				c-1.9-0.4-2.8-1-2.8-2.1c0-1.2,1-2.1,3-2.1c1.1,0,2.2,0.4,2.9,0.9l-0.6,0.8c-0.7-0.5-1.5-0.8-2.4-0.8c-1.2,0-1.7,0.5-1.7,1
				c0,0.6,0.6,0.9,2.1,1.2c2.4,0.5,3,1.1,3,2.3c0,1.2-1.2,2.2-3.2,2.2C97.8,41.3,96.5,40.8,95.6,40.2z"/>
			<path class="st0" d="M107.7,34.9h-3.4v-1h4.6v7.3h-1.3L107.7,34.9L107.7,34.9z M107.2,31.4c0-0.6,0.4-1,1-1s1,0.4,1,1
				c0,0.6-0.4,1-1,1S107.2,32,107.2,31.4z"/>
			<path class="st0" d="M110.9,42.5c0-0.6,0.4-1.2,1.2-1.6v-0.1c-0.4-0.2-0.8-0.6-0.8-1.2c0-0.5,0.3-1,0.9-1.4v-0.1
				c-0.5-0.4-0.9-1-0.9-1.9c0-1.6,1.3-2.6,2.9-2.6c0.4,0,0.8,0.1,1.1,0.2h3v1h-1.9c0.3,0.3,0.6,0.9,0.6,1.5c0,1.6-1.3,2.5-2.8,2.5
				c-0.4,0-0.8-0.1-1.2-0.3c-0.4,0.2-0.6,0.5-0.6,0.8c0,0.6,0.6,0.8,1.5,0.8h1.6c1.9,0,2.8,0.5,2.8,1.7c0,1.4-1.6,2.5-4.1,2.5
				C112.1,44.5,110.9,43.8,110.9,42.5z M117.1,42.2c0-0.7-0.6-0.9-1.7-0.9H114c-0.4,0-0.8,0-1.1-0.1c-0.7,0.4-0.9,0.8-0.9,1.2
				c0,0.8,0.8,1.3,2.4,1.3C116,43.6,117.1,42.9,117.1,42.2z M115.8,36.3c0-1-0.8-1.7-1.7-1.7c-0.9,0-1.7,0.7-1.7,1.7
				c0,1,0.8,1.7,1.7,1.7C115.1,38,115.8,37.3,115.8,36.3z"/>
			<path class="st0" d="M119.6,33.9h1l0.1,1.2h0.1c0.8-0.8,1.6-1.4,2.8-1.4c1.7,0,2.5,1,2.5,2.9v4.5h-1.3v-4.4c0-1.4-0.5-2-1.7-2
				c-0.9,0-1.5,0.4-2.3,1.3v5.1h-1.3L119.6,33.9L119.6,33.9z"/>
			<path class="st0" d="M127.6,37.5c0-2.4,1.8-3.8,3.7-3.8c2.1,0,3.3,1.4,3.3,3.4c0,0.3,0,0.6-0.1,0.8h-6.2v-1h5.4l-0.3,0.3
				c0-1.7-0.9-2.6-2.2-2.6c-1.4,0-2.5,1-2.5,2.8c0,1.9,1.2,2.8,2.9,2.8c0.9,0,1.6-0.3,2.2-0.7l0.4,0.8c-0.7,0.5-1.6,0.9-2.8,0.9
				C129.3,41.3,127.6,39.9,127.6,37.5z"/>
			<path class="st0" d="M137.1,33.9h1l0.1,1.7h0c0.8-1.2,1.9-1.9,3.3-1.9c0.5,0,1,0.1,1.4,0.3l-0.3,1.1c-0.5-0.2-0.8-0.2-1.4-0.2
				c-1.1,0-2.1,0.6-3,2.1v4.3h-1.3L137.1,33.9L137.1,33.9z"/>
		</g>
	</g>
</g>
<g>
	<g>
		<defs>
			
				<rect id="SVGID_1_" x="-4" y="54.8" transform="matrix(0.8853 -0.465 0.465 0.8853 -36.0449 17.1235)" width="41.4" height="53.6"/>
		</defs>
		<clipPath id="SVGID_2_">
			<use xlink:href="#SVGID_1_"  style="overflow:visible;"/>
		</clipPath>
		<g class="st2">
			<defs>
				
					<rect id="SVGID_3_" x="-4" y="54.8" transform="matrix(0.8853 -0.465 0.465 0.8853 -36.0449 17.1235)" width="41.4" height="53.6"/>
			</defs>
			<clipPath id="SVGID_4_">
				<use xlink:href="#SVGID_3_"  style="overflow:visible;"/>
			</clipPath>
			<path class="st3" d="M15.2,77.3c0,0-4.3,0.9-1.3,6.2c2.1,3.7,5.9,1.3,5.9,1.3l2.1,3.5c0,0-7.1,5-11.5-3.3
				c-4.8-9.2,2.5-11.5,2.5-11.5L15.2,77.3z"/>
			
				<rect x="19.5" y="82.6" transform="matrix(0.8792 -0.4764 0.4764 0.8792 -38.4151 20.6048)" class="st3" width="3.8" height="6.9"/>
			
				<rect x="19.5" y="82.6" transform="matrix(0.8792 -0.4764 0.4764 0.8792 -38.4151 20.6048)" class="st4" width="3.8" height="6.9"/>
			
				<rect x="13.2" y="71.2" transform="matrix(0.8792 -0.4764 0.4764 0.8792 -33.7257 16.1989)" class="st3" width="3.8" height="6.9"/>
			
				<rect x="13.2" y="71.2" transform="matrix(0.8792 -0.4764 0.4764 0.8792 -33.7257 16.1989)" class="st4" width="3.8" height="6.9"/>
		</g>
	</g>
</g>
<g>
	<g>
		<defs>
			<rect id="SVGID_5_" x="1.5" y="170.8" width="31.4" height="45"/>
		</defs>
		<clipPath id="SVGID_6_">
			<use xlink:href="#SVGID_5_"  style="overflow:visible;"/>
		</clipPath>
		<rect x="7.5" y="186.1" class="st5" width="17.4" height="11"/>
		<rect x="7.5" y="186.1" class="st6" width="17.4" height="11"/>
		<polyline class="st5" points="25.2,186.7 16.1,192.4 7.3,186.7 		"/>
		<polyline class="st7" points="25.2,186.7 16.1,192.4 7.3,186.7 		"/>
	</g>
</g>
<g>
	<g>
		<defs>
			
				<rect id="SVGID_7_" x="-8" y="128.1" transform="matrix(0.4193 -0.9078 0.9078 0.4193 -123.8821 100.0412)" width="48.6" height="37.6"/>
		</defs>
		<clipPath id="SVGID_8_">
			<use xlink:href="#SVGID_7_"  style="overflow:visible;"/>
		</clipPath>
		<g class="st8">
			<defs>
				
					<rect id="SVGID_9_" x="-8" y="128.1" transform="matrix(0.4193 -0.9078 0.9078 0.4193 -123.8821 100.0412)" width="48.6" height="37.6"/>
			</defs>
			<clipPath id="SVGID_10_">
				<use xlink:href="#SVGID_9_"  style="overflow:visible;"/>
			</clipPath>
			<path class="st9" d="M20.1,142c-1.8,3.8-3.3,6.8-8.1,4.6c-4.7-2.2-3.5-5.4-1.8-9.2c1.8-3.8,5.4-5.9,8.1-4.6
				C21.1,134.1,21.9,138.2,20.1,142"/>
			
				<ellipse transform="matrix(0.4193 -0.9078 0.9078 0.4193 -118.0317 94.8689)" class="st10" cx="15.1" cy="139.7" rx="7.6" ry="5.5"/>
			<polyline class="st11" points="18.3,132.8 16.3,137.1 21.1,139.3 11.8,135 			"/>
			<path class="st12" d="M18.2,133.2c0,0,1-1.8-0.8-2.6c-1.1-0.5-1.3-1.5-0.4-2.1c1.8-1.2,2.5,2.3,3.8,1.4c1-0.7,0.5-3.3,0.5-3.3"/>
		</g>
	</g>
</g>
</svg>
