<?xml version="1.0" encoding="utf-8"?>
<!-- Generator: Adobe Illustrator 23.0.6, SVG Export Plug-In . SVG Version: 6.00 Build 0)  -->
<svg version="1.1" id="Layer_1" xmlns="http://www.w3.org/2000/svg" xmlns:xlink="http://www.w3.org/1999/xlink" x="0px" y="0px"
	 viewBox="0 0 144 216" style="enable-background:new 0 0 144 216;" xml:space="preserve">
<style type="text/css">
	.st0{fill:#FD55D3;}
	.st1{fill:#5D22C2;}
	.st2{clip-path:url(#SVGID_2_);}
	.st3{clip-path:url(#SVGID_4_);fill:#231F20;}
	.st4{clip-path:url(#SVGID_4_);fill:none;stroke:#5D22C2;stroke-width:0.7793;stroke-miterlimit:10;}
	.st5{clip-path:url(#SVGID_6_);fill:#231F20;}
	.st6{clip-path:url(#SVGID_6_);fill:none;stroke:#5D22C2;stroke-width:5.401508e-02;stroke-miterlimit:10;}
	.st7{clip-path:url(#SVGID_6_);fill:none;stroke:#5D22C2;stroke-width:0.7022;stroke-miterlimit:10;}
	.st8{clip-path:url(#SVGID_8_);}
	.st9{clip-path:url(#SVGID_10_);fill:#231F20;}
	.st10{clip-path:url(#SVGID_10_);fill:none;stroke:#5D22C2;stroke-width:0.6685;stroke-miterlimit:10;}
	.st11{clip-path:url(#SVGID_10_);fill:none;stroke:#5D22C2;stroke-width:0.7242;stroke-miterlimit:10;}
	.st12{clip-path:url(#SVGID_10_);fill:none;stroke:#231F20;stroke-width:0.7242;stroke-miterlimit:10;}
	.st13{fill:none;}
	.st14{font-family:'Consolas-Bold';}
	.st15{font-size:12px;}
</style>
<rect x="-0.1" y="0.5" class="st0" width="650.7" height="215.6"/>
<ellipse class="st1" cx="71.7" cy="71.7" rx="13.1" ry="13.4"/>
<ellipse class="st1" cx="72.2" cy="125.5" rx="13.1" ry="13.4"/>
<ellipse class="st1" cx="72.2" cy="176.4" rx="13.1" ry="13.4"/>
<rect x="0" y="0.2" width="227.8" height="53.8"/>
<g>
	<g>
		<g>
			<path class="st1" d="M3.1,22.8l1.8-1.9c1,1.4,2.2,2,3.4,2c2.1,0,3.1-1,3.1-3.5v-8.6H4.5V8.3h9.9v11.4c0,3.3-1.5,5.9-6,5.9
				C6.5,25.6,4.4,24.8,3.1,22.8z"/>
			<path class="st1" d="M17.4,21.9c0-2.9,2.5-4.3,8.8-4.7c-0.1-1.4-1-2.5-3-2.5c-1.4,0-2.9,0.6-4.2,1.4l-1.1-2
				c1.5-0.9,3.6-1.8,5.8-1.8c3.5,0,5.5,2,5.5,5.5v7.6h-2.5l-0.2-1.6h-0.1c-1.3,1-3.1,1.9-4.8,1.9C19.2,25.6,17.4,24.1,17.4,21.9z
				 M26.2,21.7V19c-4.6,0.3-5.9,1.2-5.9,2.6c0,1.1,1,1.6,2.3,1.6C23.9,23.3,25,22.6,26.2,21.7z"/>
			<path class="st1" d="M31,12.5h2.3l0.2,1.6h0.1c0.6-1.1,1.4-1.9,2.8-1.9c1.2,0,2,0.7,2.3,2.1c0.6-1.3,1.4-2.1,2.9-2.1
				c1.8,0,2.8,1.5,2.8,4v9h-2.9v-8.8c0-1.1-0.3-1.7-1-1.7c-0.7,0-1.1,0.5-1.6,1.6v8.9h-2.5v-8.8c0-1.1-0.3-1.7-1-1.7
				c-0.7,0-1.1,0.5-1.6,1.6v8.9H31C31,25.3,31,12.5,31,12.5z"/>
			<path class="st1" d="M45.9,18.9c0-4.2,3.2-6.7,6.6-6.7c3.8,0,5.9,2.5,5.9,6.1c0,0.6-0.1,1.2-0.1,1.5H48.1v-2.1h8.3l-0.6,0.7
				c0-2.5-1.2-3.8-3.2-3.8c-2.1,0-3.7,1.5-3.7,4.4c0,3,1.8,4.4,4.4,4.4c1.3,0,2.4-0.4,3.6-1l1,1.9c-1.4,0.9-3.1,1.5-5,1.5
				C49,25.6,45.9,23.1,45.9,18.9z"/>
			<path class="st1" d="M59.9,23.6l1.3-1.9c1.5,1,3.3,1.6,5.3,1.6c1.8,0,2.6-0.7,2.6-1.5c0-0.8-0.6-1.3-3.5-1.9
				c-3.4-0.7-4.9-1.9-4.9-3.9c0-2.2,2-3.8,5.6-3.8c2.1,0,4.1,0.8,5.3,1.7l-1.4,1.9c-1.2-0.8-2.7-1.3-4.2-1.3c-1.7,0-2.3,0.6-2.3,1.4
				c0,0.9,0.9,1.2,3.3,1.7c4.1,0.9,5.1,2,5.1,4c0,2.2-2.1,4-6,4C63.8,25.6,61.5,24.7,59.9,23.6z"/>
			<path class="st1" d="M85,8.3h5.7c3.5,0,6.3,1.3,6.3,5.1c0,3.6-2.7,5.3-6.3,5.3H88v6.6h-3V8.3z M90.3,16.3c2.3,0,3.6-1,3.6-2.9
				c0-1.9-1.3-2.6-3.6-2.6H88v5.5L90.3,16.3L90.3,16.3z M92.3,16l5.3,9.3h-3.4l-4.1-7.4L92.3,16z"/>
			<path class="st1" d="M98.9,20.4v-7.9h3v7.5c0,2,0.6,3,2.4,3c1.2,0,2.1-0.5,3.2-1.9v-8.6h3v12.8H108l-0.2-2h-0.1
				c-1.2,1.4-2.6,2.3-4.5,2.3C100.2,25.6,98.9,23.7,98.9,20.4z"/>
			<path class="st1" d="M116.1,20.2v-5.3h-3.4v-2.2l3.5-0.1l0.4-4h2.5v4h5.8v2.4h-5.8v5.2c0,2.1,0.8,3.1,2.9,3.1
				c1.1,0,1.9-0.2,2.8-0.5l0.6,2.2c-1.1,0.4-2.4,0.7-4.1,0.7C117.4,25.6,116.1,23.4,116.1,20.2z"/>
			<path class="st1" d="M127.2,6.9h3v4.7l-0.2,2.7h0.1c1.1-1.2,2.6-2.2,4.5-2.2c2.9,0,4.3,1.9,4.3,5.2v7.9h-3v-7.5
				c0-2.1-0.7-3-2.4-3c-1.3,0-2.1,0.6-3.3,1.8v8.7h-3C127.2,25.3,127.2,6.9,127.2,6.9z"/>
		</g>
	</g>
	<g>
		<g>
			<path class="st0" d="M11,36.2c0-3.2,1.8-5.1,4.4-5.1c1.3,0,2.2,0.6,2.7,1.2l-0.7,0.8c-0.5-0.5-1-0.9-2-0.9c-1.9,0-3,1.5-3,4
				c0,2.5,1.1,4,3,4c0.7,0,1.3-0.2,1.7-0.6v-2.6h-1.9v-1h3.1v4.1c-0.6,0.6-1.7,1.1-2.9,1.1C12.8,41.3,11,39.5,11,36.2z"/>
			<path class="st0" d="M20.8,33.9h1l0.1,1.7h0c0.8-1.2,1.9-1.9,3.3-1.9c0.5,0,1,0.1,1.4,0.3L26.4,35c-0.5-0.2-0.8-0.2-1.4-0.2
				c-1.1,0-2.1,0.6-3,2.1v4.3h-1.2V33.9z"/>
			<path class="st0" d="M28.1,39.3c0-1.6,1.5-2.4,5.3-2.7c0-1-0.5-1.8-1.9-1.8c-0.9,0-1.9,0.5-2.5,0.9l-0.5-0.8c0.8-0.5,2-1,3.3-1
				c2,0,3,1.2,3,3v4.5h-1l-0.1-1h0c-0.8,0.6-1.8,1.2-2.9,1.2C29.3,41.3,28.1,40.6,28.1,39.3z M33.4,39.3v-1.9
				c-3.1,0.2-4.1,0.8-4.1,1.8c0,0.8,0.8,1.2,1.6,1.2C31.8,40.3,32.6,39.9,33.4,39.3z"/>
			<path class="st0" d="M36.6,33.9h1l0.1,0.9h0c0.7-0.7,1.6-1.1,2.5-1.1c2,0,3,1.5,3,3.7c0,2.5-1.6,3.9-3.3,3.9
				c-0.7,0-1.5-0.3-2.2-1h0l0.1,1.4v2.5h-1.3V33.9z M42,37.4c0-1.6-0.6-2.7-2.1-2.7c-0.6,0-1.4,0.3-2.1,1.1v3.6
				c0.7,0.6,1.4,0.8,1.9,0.8C41.1,40.3,42,39.2,42,37.4z"/>
			<path class="st0" d="M45,30.5h1.3v2.9l-0.1,1.7h0c0.7-0.8,1.6-1.4,2.7-1.4c1.7,0,2.5,1,2.5,2.9v4.5h-1.3v-4.4c0-1.4-0.5-2-1.7-2
				c-0.9,0-1.5,0.4-2.3,1.3v5.1H45V30.5z"/>
			<path class="st0" d="M56.7,34.9h-3.4v-1h4.6v7.3h-1.3L56.7,34.9L56.7,34.9z M56.2,31.4c0-0.6,0.4-1,1-1s1,0.4,1,1
				c0,0.6-0.4,1-1,1S56.2,32,56.2,31.4z"/>
			<path class="st0" d="M61.6,37.5c0-2.4,1.9-3.8,4.1-3.8c1.2,0,2.1,0.5,2.7,1.1l-0.6,0.8c-0.6-0.5-1.2-0.8-2-0.8
				c-1.7,0-2.8,1.1-2.8,2.8s1.1,2.8,2.8,2.8c0.9,0,1.7-0.4,2.3-0.9l0.6,0.8c-0.8,0.7-1.8,1.1-2.9,1.1C63.3,41.3,61.6,39.9,61.6,37.5
				z"/>
			<path class="st0" d="M78.4,31.3h2.4c3,0,4.6,1.8,4.6,4.9c0,3.1-1.6,5-4.5,5h-2.5V31.3z M80.8,40.1c2.2,0,3.3-1.4,3.3-3.9
				c0-2.5-1.1-3.8-3.3-3.8h-1.1v7.8H80.8z"/>
			<path class="st0" d="M86.9,37.5c0-2.4,1.8-3.8,3.7-3.8c2.1,0,3.3,1.4,3.3,3.4c0,0.3,0,0.6-0.1,0.8h-6.2v-1h5.4l-0.3,0.3
				c0-1.7-0.9-2.6-2.2-2.6c-1.3,0-2.5,1-2.5,2.8c0,1.9,1.2,2.8,2.8,2.8c0.9,0,1.6-0.3,2.2-0.7l0.4,0.8c-0.7,0.5-1.7,0.9-2.8,0.9
				C88.6,41.3,86.9,39.9,86.9,37.5z"/>
			<path class="st0" d="M95.6,40.2l0.6-0.8c0.8,0.6,1.8,1,3.2,1c1.2,0,1.8-0.5,1.8-1.1c0-0.6-0.3-0.9-2.3-1.3
				c-1.9-0.4-2.8-1-2.8-2.1c0-1.2,1-2.1,3-2.1c1.1,0,2.2,0.4,2.9,0.9l-0.6,0.8c-0.7-0.5-1.5-0.8-2.4-0.8c-1.2,0-1.7,0.5-1.7,1
				c0,0.6,0.6,0.9,2.1,1.2c2.4,0.5,3,1.1,3,2.3c0,1.2-1.2,2.2-3.2,2.2C97.8,41.3,96.5,40.8,95.6,40.2z"/>
			<path class="st0" d="M107.7,34.9h-3.4v-1h4.6v7.3h-1.3L107.7,34.9L107.7,34.9z M107.2,31.4c0-0.6,0.4-1,1-1s1,0.4,1,1
				c0,0.6-0.4,1-1,1S107.2,32,107.2,31.4z"/>
			<path class="st0" d="M110.9,42.5c0-0.6,0.4-1.2,1.2-1.6v-0.1c-0.4-0.2-0.8-0.6-0.8-1.2c0-0.5,0.3-1,0.9-1.4v-0.1
				c-0.5-0.4-0.9-1-0.9-1.9c0-1.6,1.3-2.6,2.9-2.6c0.4,0,0.8,0.1,1.1,0.2h3v1h-1.9c0.3,0.3,0.6,0.9,0.6,1.5c0,1.6-1.3,2.5-2.8,2.5
				c-0.4,0-0.8-0.1-1.2-0.3c-0.4,0.2-0.6,0.5-0.6,0.8c0,0.6,0.6,0.8,1.5,0.8h1.6c1.9,0,2.8,0.5,2.8,1.7c0,1.4-1.6,2.5-4.1,2.5
				C112.1,44.5,110.9,43.8,110.9,42.5z M117.1,42.2c0-0.7-0.6-0.9-1.7-0.9H114c-0.4,0-0.8,0-1.1-0.1c-0.7,0.4-0.9,0.8-0.9,1.2
				c0,0.8,0.8,1.3,2.4,1.3C116,43.6,117.1,42.9,117.1,42.2z M115.8,36.3c0-1-0.8-1.7-1.7-1.7c-0.9,0-1.7,0.7-1.7,1.7
				c0,1,0.8,1.7,1.7,1.7C115.1,38,115.8,37.3,115.8,36.3z"/>
			<path class="st0" d="M119.6,33.9h1l0.1,1.2h0.1c0.8-0.8,1.6-1.4,2.8-1.4c1.7,0,2.5,1,2.5,2.9v4.5h-1.3v-4.4c0-1.4-0.5-2-1.7-2
				c-0.9,0-1.5,0.4-2.3,1.3v5.1h-1.3L119.6,33.9L119.6,33.9z"/>
			<path class="st0" d="M127.6,37.5c0-2.4,1.8-3.8,3.7-3.8c2.1,0,3.3,1.4,3.3,3.4c0,0.3,0,0.6-0.1,0.8h-6.2v-1h5.4l-0.3,0.3
				c0-1.7-0.9-2.6-2.2-2.6c-1.4,0-2.5,1-2.5,2.8c0,1.9,1.2,2.8,2.9,2.8c0.9,0,1.6-0.3,2.2-0.7l0.4,0.8c-0.7,0.5-1.6,0.9-2.8,0.9
				C129.3,41.3,127.6,39.9,127.6,37.5z"/>
			<path class="st0" d="M137.1,33.9h1l0.1,1.7h0c0.8-1.2,1.9-1.9,3.3-1.9c0.5,0,1,0.1,1.4,0.3l-0.3,1.1c-0.5-0.2-0.8-0.2-1.4-0.2
				c-1.1,0-2.1,0.6-3,2.1v4.3h-1.3L137.1,33.9L137.1,33.9z"/>
		</g>
	</g>
</g>
<g>
	<g>
		<defs>
			
				<rect id="SVGID_1_" x="51.6" y="46.2" transform="matrix(0.8853 -0.465 0.465 0.8853 -25.6398 42.0259)" width="41.4" height="53.6"/>
		</defs>
		<clipPath id="SVGID_2_">
			<use xlink:href="#SVGID_1_"  style="overflow:visible;"/>
		</clipPath>
		<g class="st2">
			<defs>
				
					<rect id="SVGID_3_" x="51.6" y="46.2" transform="matrix(0.8853 -0.465 0.465 0.8853 -25.6398 42.0259)" width="41.4" height="53.6"/>
			</defs>
			<clipPath id="SVGID_4_">
				<use xlink:href="#SVGID_3_"  style="overflow:visible;"/>
			</clipPath>
			<path class="st3" d="M70.9,68.6c0,0-4.3,0.9-1.3,6.2c2.1,3.7,5.9,1.3,5.9,1.3l2.1,3.5c0,0-7.1,5-11.5-3.3
				c-4.8-9.2,2.5-11.5,2.5-11.5L70.9,68.6z"/>
			
				<rect x="75.2" y="74" transform="matrix(0.8792 -0.4764 0.4764 0.8792 -27.5729 46.0893)" class="st3" width="3.8" height="6.9"/>
			
				<rect x="75.2" y="74" transform="matrix(0.8792 -0.4764 0.4764 0.8792 -27.5729 46.0893)" class="st4" width="3.8" height="6.9"/>
			
				<rect x="68.9" y="62.5" transform="matrix(0.8792 -0.4764 0.4764 0.8792 -22.8835 41.6834)" class="st3" width="3.8" height="6.9"/>
			
				<rect x="68.9" y="62.5" transform="matrix(0.8792 -0.4764 0.4764 0.8792 -22.8835 41.6834)" class="st4" width="3.8" height="6.9"/>
		</g>
	</g>
</g>
<g>
	<g>
		<defs>
			<rect id="SVGID_5_" x="57.2" y="155.9" width="31.4" height="45"/>
		</defs>
		<clipPath id="SVGID_6_">
			<use xlink:href="#SVGID_5_"  style="overflow:visible;"/>
		</clipPath>
		<rect x="63.2" y="171.2" class="st5" width="17.4" height="11"/>
		<rect x="63.2" y="171.2" class="st6" width="17.4" height="11"/>
		<polyline class="st5" points="80.8,171.9 71.8,177.5 63,171.8 		"/>
		<polyline class="st7" points="80.8,171.9 71.8,177.5 63,171.8 		"/>
	</g>
</g>
<g>
	<g>
		<defs>
			
				<rect id="SVGID_7_" x="48.1" y="116.1" transform="matrix(0.4193 -0.9078 0.9078 0.4193 -80.3772 144.0572)" width="48.6" height="37.6"/>
		</defs>
		<clipPath id="SVGID_8_">
			<use xlink:href="#SVGID_7_"  style="overflow:visible;"/>
		</clipPath>
		<g class="st8">
			<defs>
				
					<rect id="SVGID_9_" x="48.1" y="116.1" transform="matrix(0.4193 -0.9078 0.9078 0.4193 -80.3772 144.0572)" width="48.6" height="37.6"/>
			</defs>
			<clipPath id="SVGID_10_">
				<use xlink:href="#SVGID_9_"  style="overflow:visible;"/>
			</clipPath>
			<path class="st9" d="M76.3,130c-1.8,3.8-3.3,6.8-8.1,4.6c-4.7-2.2-3.5-5.4-1.8-9.2c1.8-3.8,5.4-5.9,8.1-4.6
				C77.2,122.1,78,126.2,76.3,130"/>
			
				<ellipse transform="matrix(0.4193 -0.9078 0.9078 0.4193 -74.5267 138.8849)" class="st10" cx="71.3" cy="127.7" rx="7.6" ry="5.5"/>
			<polyline class="st11" points="74.5,120.8 72.5,125.1 77.2,127.3 67.9,123 			"/>
			<path class="st12" d="M74.3,121.2c0,0,1-1.8-0.8-2.6c-1.1-0.5-1.3-1.5-0.4-2.1c1.8-1.2,2.5,2.3,3.8,1.4c1-0.7,0.5-3.3,0.5-3.3"/>
		</g>
	</g>
</g>
<rect x="6.4" y="194.1" class="st13" width="132.5" height="40.8"/>
<text transform="matrix(1 0 0 1 6.3997 202.3607)" class="st14 st15">ruthdesign@gmail.com</text>
<rect x="15" y="143.2" class="st13" width="136.8" height="40.8"/>
<text transform="matrix(1 0 0 1 15.04 151.4807)" class="st14 st15">ruthdesign.git.io</text>
<rect x="28" y="89.4" class="st13" width="96.5" height="17.8"/>
<text transform="matrix(1 0 0 1 28 97.7199)" class="st14 st15">(978)808-3357</text>
</svg>
